<?xml version="1.0" encoding="us-ascii" standalone="no"?><svg xmlns="http://www.w3.org/2000/svg" xmlns:xlink="http://www.w3.org/1999/xlink" contentStyleType="text/css" height="831px" preserveAspectRatio="none" style="width:1088px;height:831px;background:#FFFFFF;" version="1.1" viewBox="0 0 1088 831" width="1088px" zoomAndPan="magnify"><defs/><g><!--class Account--><g id="elem_Account"><rect codeLine="2" fill="#F1F1F1" height="113.9531" id="Account" rx="2.5" ry="2.5" style="stroke:#181818;stroke-width:0.5;" width="171" x="455.4367" y="7"/><ellipse cx="508.6867" cy="23" fill="#ADD1B2" rx="11" ry="11" style="stroke:#181818;stroke-width:1.0;"/><path d="M511.1598,29.1431 Q510.5787,29.4419 509.9396,29.5913 Q509.3004,29.7407 508.5949,29.7407 Q506.088,29.7407 504.7682,28.0889 Q503.4484,26.437 503.4484,23.3159 Q503.4484,20.1865 504.7682,18.5347 Q506.088,16.8828 508.5949,16.8828 Q509.3004,16.8828 509.9479,17.0322 Q510.5953,17.1816 511.1598,17.4805 L511.1598,20.2031 Q510.5289,19.6221 509.9354,19.3523 Q509.3419,19.0825 508.7111,19.0825 Q507.3663,19.0825 506.6815,20.1492 Q505.9967,21.2158 505.9967,23.3159 Q505.9967,25.4077 506.6815,26.4744 Q507.3663,27.541 508.7111,27.541 Q509.3419,27.541 509.9354,27.2712 Q510.5289,27.0015 511.1598,26.4204 Z " fill="#000000"/><text fill="#000000" font-family="sans-serif" font-size="14" lengthAdjust="spacing" textLength="56" x="529.1867" y="28.291">Account</text><line style="stroke:#181818;stroke-width:0.5;" x1="456.4367" x2="625.4367" y1="39" y2="39"/><ellipse cx="466.4367" cy="52.7441" fill="none" rx="3" ry="3" style="stroke:#038048;stroke-width:1.0;"/><text fill="#000000" font-family="sans-serif" font-size="14" lengthAdjust="spacing" textLength="117" x="475.4367" y="56.5352">username: String</text><ellipse cx="466.4367" cy="69.2324" fill="none" rx="3" ry="3" style="stroke:#038048;stroke-width:1.0;"/><text fill="#000000" font-family="sans-serif" font-size="14" lengthAdjust="spacing" textLength="115" x="475.4367" y="73.0234">password: String</text><line style="stroke:#181818;stroke-width:0.5;" x1="456.4367" x2="625.4367" y1="79.9766" y2="79.9766"/><ellipse cx="466.4367" cy="93.7207" fill="#84BE84" rx="3" ry="3" style="stroke:#038048;stroke-width:1.0;"/><text fill="#000000" font-family="sans-serif" font-size="14" lengthAdjust="spacing" textLength="137" x="475.4367" y="97.5117">fetchAccount(): void</text><ellipse cx="466.4367" cy="110.209" fill="#84BE84" rx="3" ry="3" style="stroke:#038048;stroke-width:1.0;"/><text fill="#000000" font-family="sans-serif" font-size="14" lengthAdjust="spacing" textLength="145" x="475.4367" y="114">createAccount(): void</text></g><!--class Renter--><g id="elem_Renter"><rect codeLine="9" fill="#F1F1F1" height="179.9063" id="Renter" rx="2.5" ry="2.5" style="stroke:#181818;stroke-width:0.5;" width="342" x="369.9367" y="181.95"/><ellipse cx="514.1867" cy="197.95" fill="#ADD1B2" rx="11" ry="11" style="stroke:#181818;stroke-width:1.0;"/><path d="M516.6598,204.0931 Q516.0787,204.3919 515.4396,204.5413 Q514.8004,204.6907 514.0949,204.6907 Q511.588,204.6907 510.2682,203.0389 Q508.9484,201.387 508.9484,198.2659 Q508.9484,195.1365 510.2682,193.4847 Q511.588,191.8328 514.0949,191.8328 Q514.8004,191.8328 515.4479,191.9822 Q516.0953,192.1316 516.6598,192.4305 L516.6598,195.1531 Q516.0289,194.5721 515.4354,194.3023 Q514.8419,194.0325 514.2111,194.0325 Q512.8663,194.0325 512.1815,195.0992 Q511.4967,196.1658 511.4967,198.2659 Q511.4967,200.3577 512.1815,201.4244 Q512.8663,202.491 514.2111,202.491 Q514.8419,202.491 515.4354,202.2212 Q516.0289,201.9515 516.6598,201.3704 Z " fill="#000000"/><text fill="#000000" font-family="sans-serif" font-size="14" lengthAdjust="spacing" textLength="45" x="534.6867" y="203.241">Renter</text><line style="stroke:#181818;stroke-width:0.5;" x1="370.9367" x2="710.9367" y1="213.95" y2="213.95"/><ellipse cx="380.9367" cy="227.6941" fill="none" rx="3" ry="3" style="stroke:#038048;stroke-width:1.0;"/><text fill="#000000" font-family="sans-serif" font-size="14" lengthAdjust="spacing" textLength="148" x="389.9367" y="231.4852">depositAmount: Float</text><line style="stroke:#181818;stroke-width:0.5;" x1="370.9367" x2="710.9367" y1="238.4383" y2="238.4383"/><ellipse cx="380.9367" cy="252.1824" fill="#84BE84" rx="3" ry="3" style="stroke:#038048;stroke-width:1.0;"/><text fill="#000000" font-family="sans-serif" font-size="14" lengthAdjust="spacing" textLength="238" x="389.9367" y="255.9734">depositMoney(amount: Float): void</text><ellipse cx="380.9367" cy="268.6707" fill="#84BE84" rx="3" ry="3" style="stroke:#038048;stroke-width:1.0;"/><text fill="#000000" font-family="sans-serif" font-size="14" lengthAdjust="spacing" textLength="163" x="389.9367" y="272.4617">locateScooter(): Scooter</text><ellipse cx="380.9367" cy="285.159" fill="#84BE84" rx="3" ry="3" style="stroke:#038048;stroke-width:1.0;"/><text fill="#000000" font-family="sans-serif" font-size="14" lengthAdjust="spacing" textLength="238" x="389.9367" y="288.95">rentScooter(scooter: Scooter): void</text><ellipse cx="380.9367" cy="301.6473" fill="#84BE84" rx="3" ry="3" style="stroke:#038048;stroke-width:1.0;"/><text fill="#000000" font-family="sans-serif" font-size="14" lengthAdjust="spacing" textLength="306" x="389.9367" y="305.4383">pauseRenting(reservation: Reservation): void</text><ellipse cx="380.9367" cy="318.1355" fill="#84BE84" rx="3" ry="3" style="stroke:#038048;stroke-width:1.0;"/><text fill="#000000" font-family="sans-serif" font-size="14" lengthAdjust="spacing" textLength="316" x="389.9367" y="321.9266">resumeRenting(reservation: Reservation): void</text><ellipse cx="380.9367" cy="334.6238" fill="#84BE84" rx="3" ry="3" style="stroke:#038048;stroke-width:1.0;"/><text fill="#000000" font-family="sans-serif" font-size="14" lengthAdjust="spacing" textLength="308" x="389.9367" y="338.4148">cancelRenting(reservation: Reservation): void</text><ellipse cx="380.9367" cy="351.1121" fill="#84BE84" rx="3" ry="3" style="stroke:#038048;stroke-width:1.0;"/><text fill="#000000" font-family="sans-serif" font-size="14" lengthAdjust="spacing" textLength="291" x="389.9367" y="354.9031">endRenting(reservation: Reservation): void</text></g><!--class Admin--><g id="elem_Admin"><rect codeLine="20" fill="#F1F1F1" height="97.4648" id="Admin" rx="2.5" ry="2.5" style="stroke:#181818;stroke-width:0.5;" width="337" x="59.4367" y="511.08"/><ellipse cx="201.1867" cy="527.08" fill="#ADD1B2" rx="11" ry="11" style="stroke:#181818;stroke-width:1.0;"/><path d="M203.6598,533.2231 Q203.0787,533.5219 202.4396,533.6713 Q201.8004,533.8207 201.0949,533.8207 Q198.588,533.8207 197.2682,532.1689 Q195.9484,530.517 195.9484,527.3959 Q195.9484,524.2665 197.2682,522.6147 Q198.588,520.9628 201.0949,520.9628 Q201.8004,520.9628 202.4479,521.1122 Q203.0953,521.2616 203.6598,521.5605 L203.6598,524.2831 Q203.0289,523.7021 202.4354,523.4323 Q201.8419,523.1625 201.2111,523.1625 Q199.8663,523.1625 199.1815,524.2292 Q198.4967,525.2958 198.4967,527.3959 Q198.4967,529.4877 199.1815,530.5544 Q199.8663,531.621 201.2111,531.621 Q201.8419,531.621 202.4354,531.3512 Q203.0289,531.0815 203.6598,530.5004 Z " fill="#000000"/><text fill="#000000" font-family="sans-serif" font-size="14" lengthAdjust="spacing" textLength="45" x="221.6867" y="532.371">Admin</text><line style="stroke:#181818;stroke-width:0.5;" x1="60.4367" x2="395.4367" y1="543.08" y2="543.08"/><line style="stroke:#181818;stroke-width:0.5;" x1="60.4367" x2="395.4367" y1="551.08" y2="551.08"/><ellipse cx="70.4367" cy="564.8241" fill="#84BE84" rx="3" ry="3" style="stroke:#038048;stroke-width:1.0;"/><text fill="#000000" font-family="sans-serif" font-size="14" lengthAdjust="spacing" textLength="255" x="79.4367" y="568.6152">generateUsageReport(): UsageReport</text><ellipse cx="70.4367" cy="581.3124" fill="#84BE84" rx="3" ry="3" style="stroke:#038048;stroke-width:1.0;"/><text fill="#000000" font-family="sans-serif" font-size="14" lengthAdjust="spacing" textLength="242" x="79.4367" y="585.1034">listBrokenScooters(): List&lt;Scooter&gt;</text><ellipse cx="70.4367" cy="597.8007" fill="#84BE84" rx="3" ry="3" style="stroke:#038048;stroke-width:1.0;"/><text fill="#000000" font-family="sans-serif" font-size="14" lengthAdjust="spacing" textLength="311" x="79.4367" y="601.5917">getMileagePerScooter(): List&lt;MileageReport&gt;</text></g><!--class Finance--><g id="elem_Finance"><rect codeLine="26" fill="#F1F1F1" height="64.4883" id="Finance" rx="2.5" ry="2.5" style="stroke:#181818;stroke-width:0.5;" width="360" x="721.9367" y="391.86"/><ellipse cx="871.1867" cy="407.86" fill="#ADD1B2" rx="11" ry="11" style="stroke:#181818;stroke-width:1.0;"/><path d="M873.6598,414.0031 Q873.0787,414.3019 872.4396,414.4513 Q871.8004,414.6007 871.0949,414.6007 Q868.588,414.6007 867.2682,412.9489 Q865.9484,411.297 865.9484,408.1759 Q865.9484,405.0465 867.2682,403.3947 Q868.588,401.7428 871.0949,401.7428 Q871.8004,401.7428 872.4479,401.8922 Q873.0953,402.0416 873.6598,402.3405 L873.6598,405.0631 Q873.0289,404.4821 872.4354,404.2123 Q871.8419,403.9425 871.2111,403.9425 Q869.8663,403.9425 869.1815,405.0092 Q868.4967,406.0758 868.4967,408.1759 Q868.4967,410.2677 869.1815,411.3344 Q869.8663,412.401 871.2111,412.401 Q871.8419,412.401 872.4354,412.1312 Q873.0289,411.8615 873.6598,411.2804 Z " fill="#000000"/><text fill="#000000" font-family="sans-serif" font-size="14" lengthAdjust="spacing" textLength="53" x="891.6867" y="413.151">Finance</text><line style="stroke:#181818;stroke-width:0.5;" x1="722.9367" x2="1080.9367" y1="423.86" y2="423.86"/><line style="stroke:#181818;stroke-width:0.5;" x1="722.9367" x2="1080.9367" y1="431.86" y2="431.86"/><ellipse cx="732.9367" cy="445.6041" fill="#84BE84" rx="3" ry="3" style="stroke:#038048;stroke-width:1.0;"/><text fill="#000000" font-family="sans-serif" font-size="14" lengthAdjust="spacing" textLength="334" x="741.9367" y="449.3952">generateGrossTurnoverReport(): FinancialReport</text></g><!--class Scooter--><g id="elem_Scooter"><rect codeLine="30" fill="#F1F1F1" height="113.9531" id="Scooter" rx="2.5" ry="2.5" style="stroke:#181818;stroke-width:0.5;" width="130" x="29.9367" y="710.28"/><ellipse cx="65.6367" cy="726.28" fill="#ADD1B2" rx="11" ry="11" style="stroke:#181818;stroke-width:1.0;"/><path d="M68.1098,732.4231 Q67.5287,732.7219 66.8896,732.8713 Q66.2504,733.0207 65.5449,733.0207 Q63.038,733.0207 61.7182,731.3689 Q60.3984,729.717 60.3984,726.5959 Q60.3984,723.4665 61.7182,721.8147 Q63.038,720.1628 65.5449,720.1628 Q66.2504,720.1628 66.8979,720.3122 Q67.5453,720.4616 68.1098,720.7605 L68.1098,723.4831 Q67.4789,722.9021 66.8854,722.6323 Q66.2919,722.3625 65.6611,722.3625 Q64.3163,722.3625 63.6315,723.4292 Q62.9467,724.4958 62.9467,726.5959 Q62.9467,728.6877 63.6315,729.7544 Q64.3163,730.821 65.6611,730.821 Q66.2919,730.821 66.8854,730.5512 Q67.4789,730.2815 68.1098,729.7004 Z " fill="#000000"/><text fill="#000000" font-family="sans-serif" font-size="14" lengthAdjust="spacing" textLength="52" x="84.2367" y="731.571">Scooter</text><line style="stroke:#181818;stroke-width:0.5;" x1="30.9367" x2="158.9367" y1="742.28" y2="742.28"/><ellipse cx="40.9367" cy="756.0241" fill="none" rx="3" ry="3" style="stroke:#038048;stroke-width:1.0;"/><text fill="#000000" font-family="sans-serif" font-size="14" lengthAdjust="spacing" textLength="62" x="49.9367" y="759.8152">id: String</text><ellipse cx="40.9367" cy="772.5124" fill="none" rx="3" ry="3" style="stroke:#038048;stroke-width:1.0;"/><text fill="#000000" font-family="sans-serif" font-size="14" lengthAdjust="spacing" textLength="104" x="49.9367" y="776.3034">location: String</text><ellipse cx="40.9367" cy="789.0007" fill="none" rx="3" ry="3" style="stroke:#038048;stroke-width:1.0;"/><text fill="#000000" font-family="sans-serif" font-size="14" lengthAdjust="spacing" textLength="90" x="49.9367" y="792.7917">status: String</text><ellipse cx="40.9367" cy="805.489" fill="none" rx="3" ry="3" style="stroke:#038048;stroke-width:1.0;"/><text fill="#000000" font-family="sans-serif" font-size="14" lengthAdjust="spacing" textLength="96" x="49.9367" y="809.28">mileage: Float</text><line style="stroke:#181818;stroke-width:0.5;" x1="30.9367" x2="158.9367" y1="816.2331" y2="816.2331"/></g><!--class Reservation--><g id="elem_Reservation"><rect codeLine="37" fill="#F1F1F1" height="146.9297" id="Reservation" rx="2.5" ry="2.5" style="stroke:#181818;stroke-width:0.5;" width="165" x="458.4367" y="486.35"/><ellipse cx="497.2867" cy="502.35" fill="#ADD1B2" rx="11" ry="11" style="stroke:#181818;stroke-width:1.0;"/><path d="M499.7598,508.4931 Q499.1787,508.7919 498.5396,508.9413 Q497.9004,509.0907 497.1949,509.0907 Q494.688,509.0907 493.3682,507.4389 Q492.0484,505.787 492.0484,502.6659 Q492.0484,499.5365 493.3682,497.8847 Q494.688,496.2328 497.1949,496.2328 Q497.9004,496.2328 498.5479,496.3822 Q499.1953,496.5316 499.7598,496.8305 L499.7598,499.5531 Q499.1289,498.9721 498.5354,498.7023 Q497.9419,498.4325 497.3111,498.4325 Q495.9663,498.4325 495.2815,499.4992 Q494.5967,500.5658 494.5967,502.6659 Q494.5967,504.7577 495.2815,505.8244 Q495.9663,506.891 497.3111,506.891 Q497.9419,506.891 498.5354,506.6212 Q499.1289,506.3515 499.7598,505.7704 Z " fill="#000000"/><text fill="#000000" font-family="sans-serif" font-size="14" lengthAdjust="spacing" textLength="80" x="516.5867" y="507.641">Reservation</text><line style="stroke:#181818;stroke-width:0.5;" x1="459.4367" x2="622.4367" y1="518.35" y2="518.35"/><ellipse cx="469.4367" cy="532.0941" fill="none" rx="3" ry="3" style="stroke:#038048;stroke-width:1.0;"/><text fill="#000000" font-family="sans-serif" font-size="14" lengthAdjust="spacing" textLength="139" x="478.4367" y="535.8852">reservationId: String</text><ellipse cx="469.4367" cy="548.5824" fill="none" rx="3" ry="3" style="stroke:#038048;stroke-width:1.0;"/><text fill="#000000" font-family="sans-serif" font-size="14" lengthAdjust="spacing" textLength="95" x="478.4367" y="552.3734">renter: Renter</text><ellipse cx="469.4367" cy="565.0707" fill="none" rx="3" ry="3" style="stroke:#038048;stroke-width:1.0;"/><text fill="#000000" font-family="sans-serif" font-size="14" lengthAdjust="spacing" textLength="111" x="478.4367" y="568.8617">scooter: Scooter</text><ellipse cx="469.4367" cy="581.559" fill="none" rx="3" ry="3" style="stroke:#038048;stroke-width:1.0;"/><text fill="#000000" font-family="sans-serif" font-size="14" lengthAdjust="spacing" textLength="138" x="478.4367" y="585.35">startTime: DateTime</text><ellipse cx="469.4367" cy="598.0473" fill="none" rx="3" ry="3" style="stroke:#038048;stroke-width:1.0;"/><text fill="#000000" font-family="sans-serif" font-size="14" lengthAdjust="spacing" textLength="133" x="478.4367" y="601.8383">endTime: DateTime</text><ellipse cx="469.4367" cy="614.5355" fill="none" rx="3" ry="3" style="stroke:#038048;stroke-width:1.0;"/><text fill="#000000" font-family="sans-serif" font-size="14" lengthAdjust="spacing" textLength="90" x="478.4367" y="618.3266">status: String</text><line style="stroke:#181818;stroke-width:0.5;" x1="459.4367" x2="622.4367" y1="625.2797" y2="625.2797"/></g><!--class UsageReport--><g id="elem_UsageReport"><rect codeLine="46" fill="#F1F1F1" height="80.9766" id="UsageReport" rx="2.5" ry="2.5" style="stroke:#181818;stroke-width:0.5;" width="149" x="296.4367" y="726.77"/><ellipse cx="324.4867" cy="742.77" fill="#ADD1B2" rx="11" ry="11" style="stroke:#181818;stroke-width:1.0;"/><path d="M326.9598,748.9131 Q326.3787,749.2119 325.7396,749.3613 Q325.1004,749.5107 324.3949,749.5107 Q321.888,749.5107 320.5682,747.8589 Q319.2484,746.207 319.2484,743.0859 Q319.2484,739.9565 320.5682,738.3047 Q321.888,736.6528 324.3949,736.6528 Q325.1004,736.6528 325.7479,736.8022 Q326.3953,736.9516 326.9598,737.2505 L326.9598,739.9731 Q326.3289,739.3921 325.7354,739.1223 Q325.1419,738.8525 324.5111,738.8525 Q323.1663,738.8525 322.4815,739.9192 Q321.7967,740.9858 321.7967,743.0859 Q321.7967,745.1777 322.4815,746.2444 Q323.1663,747.311 324.5111,747.311 Q325.1419,747.311 325.7354,747.0412 Q326.3289,746.7715 326.9598,746.1904 Z " fill="#000000"/><text fill="#000000" font-family="sans-serif" font-size="14" lengthAdjust="spacing" textLength="88" x="341.3867" y="748.061">UsageReport</text><line style="stroke:#181818;stroke-width:0.5;" x1="297.4367" x2="444.4367" y1="758.77" y2="758.77"/><ellipse cx="307.4367" cy="772.5141" fill="none" rx="3" ry="3" style="stroke:#038048;stroke-width:1.0;"/><text fill="#000000" font-family="sans-serif" font-size="14" lengthAdjust="spacing" textLength="122" x="316.4367" y="776.3052">dateRange: String</text><ellipse cx="307.4367" cy="789.0024" fill="none" rx="3" ry="3" style="stroke:#038048;stroke-width:1.0;"/><text fill="#000000" font-family="sans-serif" font-size="14" lengthAdjust="spacing" textLength="123" x="316.4367" y="792.7934">totalRentals: Float</text><line style="stroke:#181818;stroke-width:0.5;" x1="297.4367" x2="444.4367" y1="799.7466" y2="799.7466"/></g><!--class MileageReport--><g id="elem_MileageReport"><rect codeLine="51" fill="#F1F1F1" height="80.9766" id="MileageReport" rx="2.5" ry="2.5" style="stroke:#181818;stroke-width:0.5;" width="152" x="529.9367" y="726.77"/><ellipse cx="554.3867" cy="742.77" fill="#ADD1B2" rx="11" ry="11" style="stroke:#181818;stroke-width:1.0;"/><path d="M556.8598,748.9131 Q556.2787,749.2119 555.6396,749.3613 Q555.0004,749.5107 554.2949,749.5107 Q551.788,749.5107 550.4682,747.8589 Q549.1484,746.207 549.1484,743.0859 Q549.1484,739.9565 550.4682,738.3047 Q551.788,736.6528 554.2949,736.6528 Q555.0004,736.6528 555.6479,736.8022 Q556.2953,736.9516 556.8598,737.2505 L556.8598,739.9731 Q556.2289,739.3921 555.6354,739.1223 Q555.0419,738.8525 554.4111,738.8525 Q553.0663,738.8525 552.3815,739.9192 Q551.6967,740.9858 551.6967,743.0859 Q551.6967,745.1777 552.3815,746.2444 Q553.0663,747.311 554.4111,747.311 Q555.0419,747.311 555.6354,747.0412 Q556.2289,746.7715 556.8598,746.1904 Z " fill="#000000"/><text fill="#000000" font-family="sans-serif" font-size="14" lengthAdjust="spacing" textLength="99" x="570.4867" y="748.061">MileageReport</text><line style="stroke:#181818;stroke-width:0.5;" x1="530.9367" x2="680.9367" y1="758.77" y2="758.77"/><ellipse cx="540.9367" cy="772.5141" fill="none" rx="3" ry="3" style="stroke:#038048;stroke-width:1.0;"/><text fill="#000000" font-family="sans-serif" font-size="14" lengthAdjust="spacing" textLength="122" x="549.9367" y="776.3052">dateRange: String</text><ellipse cx="540.9367" cy="789.0024" fill="none" rx="3" ry="3" style="stroke:#038048;stroke-width:1.0;"/><text fill="#000000" font-family="sans-serif" font-size="14" lengthAdjust="spacing" textLength="126" x="549.9367" y="792.7934">totalMileage: Float</text><line style="stroke:#181818;stroke-width:0.5;" x1="530.9367" x2="680.9367" y1="799.7466" y2="799.7466"/></g><!--class FinancialReport--><g id="elem_FinancialReport"><rect codeLine="56" fill="#F1F1F1" height="80.9766" id="FinancialReport" rx="2.5" ry="2.5" style="stroke:#181818;stroke-width:0.5;" width="169" x="741.4367" y="726.77"/><ellipse cx="769.9367" cy="742.77" fill="#ADD1B2" rx="11" ry="11" style="stroke:#181818;stroke-width:1.0;"/><path d="M772.4098,748.9131 Q771.8287,749.2119 771.1896,749.3613 Q770.5504,749.5107 769.8449,749.5107 Q767.338,749.5107 766.0182,747.8589 Q764.6984,746.207 764.6984,743.0859 Q764.6984,739.9565 766.0182,738.3047 Q767.338,736.6528 769.8449,736.6528 Q770.5504,736.6528 771.1979,736.8022 Q771.8453,736.9516 772.4098,737.2505 L772.4098,739.9731 Q771.7789,739.3921 771.1854,739.1223 Q770.5919,738.8525 769.9611,738.8525 Q768.6163,738.8525 767.9315,739.9192 Q767.2467,740.9858 767.2467,743.0859 Q767.2467,745.1777 767.9315,746.2444 Q768.6163,747.311 769.9611,747.311 Q770.5919,747.311 771.1854,747.0412 Q771.7789,746.7715 772.4098,746.1904 Z " fill="#000000"/><text fill="#000000" font-family="sans-serif" font-size="14" lengthAdjust="spacing" textLength="107" x="786.9367" y="748.061">FinancialReport</text><line style="stroke:#181818;stroke-width:0.5;" x1="742.4367" x2="909.4367" y1="758.77" y2="758.77"/><ellipse cx="752.4367" cy="772.5141" fill="none" rx="3" ry="3" style="stroke:#038048;stroke-width:1.0;"/><text fill="#000000" font-family="sans-serif" font-size="14" lengthAdjust="spacing" textLength="122" x="761.4367" y="776.3052">dateRange: String</text><ellipse cx="752.4367" cy="789.0024" fill="none" rx="3" ry="3" style="stroke:#038048;stroke-width:1.0;"/><text fill="#000000" font-family="sans-serif" font-size="14" lengthAdjust="spacing" textLength="143" x="761.4367" y="792.7934">grossTurnover: Float</text><line style="stroke:#181818;stroke-width:0.5;" x1="742.4367" x2="909.4367" y1="799.7466" y2="799.7466"/></g><!--reverse link Account to Renter--><g id="link_Account_Renter"><path codeLine="61" d="M540.9367,139.25 C540.9367,157.94 540.9367,161.25 540.9367,181.8 " fill="none" id="Account-backto-Renter" style="stroke:#181818;stroke-width:1.0;"/><polygon fill="none" points="540.9367,121.25,534.9367,139.25,546.9367,139.25,540.9367,121.25" style="stroke:#181818;stroke-width:1.0;"/></g><!--reverse link Account to Admin--><g id="link_Account_Admin"><path codeLine="62" d="M439.27,110.0737 C403.01,129.3337 378.9267,147.7 351.9367,181.95 C273.1967,281.91 243.5267,433.87 233.1067,510.71 " fill="none" id="Account-backto-Admin" style="stroke:#181818;stroke-width:1.0;"/><polygon fill="none" points="455.1667,101.63,436.4554,104.7748,442.0846,115.3726,455.1667,101.63" style="stroke:#181818;stroke-width:1.0;"/></g><!--reverse link Account to Finance--><g id="link_Account_Finance"><path codeLine="63" d="M642.5075,117.4686 C676.7375,137.1686 699.5267,153.46 729.9367,181.95 C798.8067,246.46 857.3167,342.39 884.9367,391.56 " fill="none" id="Account-backto-Finance" style="stroke:#181818;stroke-width:1.0;"/><polygon fill="none" points="626.9067,108.49,639.5146,122.6688,645.5003,112.2683,626.9067,108.49" style="stroke:#181818;stroke-width:1.0;"/></g><!--link Renter to Reservation--><g id="link_Renter_Reservation"><path codeLine="65" d="M497.5667,362.1 C488.0367,391.94 482.6767,425.46 489.9367,456.35 C492.2567,466.21 495.6767,476.21 499.6667,485.9 " fill="none" id="Renter-Reservation" style="stroke:#181818;stroke-width:1.0;"/><polygon fill="#000000" points="495.0215,429.2546,497.8066,420.1609,491.9295,420.2606,495.0215,429.2546" style="stroke:#000000;stroke-width:1.0;"/><text fill="#000000" font-family="sans-serif" font-size="13" lengthAdjust="spacing" textLength="41" x="503.9367" y="429.1684">makes</text><text fill="#000000" font-family="sans-serif" font-size="13" lengthAdjust="spacing" textLength="8" x="485.7919" y="382.466">1</text><text fill="#000000" font-family="sans-serif" font-size="13" lengthAdjust="spacing" textLength="22" x="472.6847" y="475.7233">0..*</text></g><!--link Reservation to Renter--><g id="link_Reservation_Renter"><path codeLine="67" d="M548.1167,486.1 C548.8667,476.11 549.5167,465.98 549.9367,456.35 C551.2867,425.61 550.3367,391.98 548.6367,362 " fill="none" id="Reservation-Renter" style="stroke:#181818;stroke-width:1.0;"/><polygon fill="#000000" points="554.9576,419.2553,551.9808,428.288,557.8586,428.3126,554.9576,419.2553" style="stroke:#000000;stroke-width:1.0;"/><text fill="#000000" font-family="sans-serif" font-size="13" lengthAdjust="spacing" textLength="52" x="563.9367" y="429.1684">involves</text><text fill="#000000" font-family="sans-serif" font-size="13" lengthAdjust="spacing" textLength="8" x="540.4297" y="475.6891">1</text><text fill="#000000" font-family="sans-serif" font-size="13" lengthAdjust="spacing" textLength="8" x="540.9315" y="382.358">1</text></g><!--link Reservation to Scooter--><g id="link_Reservation_Scooter"><path codeLine="66" d="M458.0767,613.1 C443.7367,620.68 428.6867,627.77 413.9367,633.28 C349.8367,657.21 326.6567,638.34 262.9367,663.28 C227.0967,677.3 190.3167,698.89 160.3367,718.68 " fill="none" id="Reservation-Scooter" style="stroke:#181818;stroke-width:1.0;"/><polygon fill="#000000" points="263.2242,673.6063,272.7314,673.3533,270.7669,667.8134,263.2242,673.6063" style="stroke:#000000;stroke-width:1.0;"/><text fill="#000000" font-family="sans-serif" font-size="13" lengthAdjust="spacing" textLength="53" x="276.9367" y="676.8484">includes</text><text fill="#000000" font-family="sans-serif" font-size="13" lengthAdjust="spacing" textLength="8" x="442.3407" y="614.7599">1</text><text fill="#000000" font-family="sans-serif" font-size="13" lengthAdjust="spacing" textLength="8" x="167.9273" y="710.132">1</text></g><!--link Admin to Scooter--><g id="link_Admin_Scooter"><path codeLine="68" d="M89.6467,608.8 C67.0367,622.84 46.5867,640.69 32.9367,663.28 C23.8167,678.37 27.4767,694.72 36.4667,709.85 " fill="none" id="Admin-Scooter" style="stroke:#181818;stroke-width:1.0;"/><polygon fill="#000000" points="35.6081,676.3599,42.4213,669.7244,37.2198,666.9869,35.6081,676.3599" style="stroke:#000000;stroke-width:1.0;"/><text fill="#000000" font-family="sans-serif" font-size="13" lengthAdjust="spacing" textLength="56" x="46.9367" y="676.8484">manages</text><text fill="#000000" font-family="sans-serif" font-size="13" lengthAdjust="spacing" textLength="8" x="62.5264" y="628.9797">1</text><text fill="#000000" font-family="sans-serif" font-size="13" lengthAdjust="spacing" textLength="22" x="6" y="699.5268">0..*</text></g><!--link Admin to UsageReport--><g id="link_Admin_UsageReport"><path codeLine="69" d="M163.3467,608.93 C142.1167,630.66 127.6567,656.7 143.9367,680.28 C161.9267,706.33 236.9967,731.42 295.9467,747.7 " fill="none" id="Admin-UsageReport" style="stroke:#181818;stroke-width:1.0;"/><polygon fill="#000000" points="152.3909,675.5503,148.2669,666.9803,144.0173,671.041,152.3909,675.5503" style="stroke:#000000;stroke-width:1.0;"/><text fill="#000000" font-family="sans-serif" font-size="13" lengthAdjust="spacing" textLength="61" x="157.9367" y="676.8484">generates</text><text fill="#000000" font-family="sans-serif" font-size="13" lengthAdjust="spacing" textLength="8" x="146.1299" y="629.1272">1</text><text fill="#000000" font-family="sans-serif" font-size="13" lengthAdjust="spacing" textLength="22" x="266.5569" y="742.9564">0..*</text></g><!--link Admin to MileageReport--><g id="link_Admin_MileageReport"><path codeLine="70" d="M272.5667,608.83 C297.4367,633.18 330.1567,661.49 363.9367,680.28 C404.1167,702.62 419.4967,695.22 462.9367,710.28 C484.7267,717.83 508.1167,726.67 529.5367,735.06 " fill="none" id="Admin-MileageReport" style="stroke:#181818;stroke-width:1.0;"/><polygon fill="#000000" points="373.4244,674.1398,366.6017,667.5139,364.0102,672.7896,373.4244,674.1398" style="stroke:#000000;stroke-width:1.0;"/><text fill="#000000" font-family="sans-serif" font-size="13" lengthAdjust="spacing" textLength="61" x="377.9367" y="676.8484">generates</text><text fill="#000000" font-family="sans-serif" font-size="13" lengthAdjust="spacing" textLength="8" x="270.0263" y="629.0138">1</text><text fill="#000000" font-family="sans-serif" font-size="13" lengthAdjust="spacing" textLength="22" x="500.0257" y="729.2301">0..*</text></g><!--link Finance to FinancialReport--><g id="link_Finance_FinancialReport"><path codeLine="71" d="M899.9667,456.71 C896.3167,505.51 886.6867,601.76 863.9367,680.28 C859.4467,695.79 852.7367,712.17 846.2167,726.42 " fill="none" id="Finance-FinancialReport" style="stroke:#181818;stroke-width:1.0;"/><polygon fill="#000000" points="900.9594,564.8688,905.6095,556.5726,899.845,555.4238,900.9594,564.8688" style="stroke:#000000;stroke-width:1.0;"/><text fill="#000000" font-family="sans-serif" font-size="13" lengthAdjust="spacing" textLength="61" x="910.9367" y="564.8784">generates</text><text fill="#000000" font-family="sans-serif" font-size="13" lengthAdjust="spacing" textLength="8" x="890.8286" y="476.9531">1</text><text fill="#000000" font-family="sans-serif" font-size="13" lengthAdjust="spacing" textLength="22" x="825.7537" y="716.008">0..*</text></g><!--link Reservation to UsageReport--><g id="link_Reservation_UsageReport"><path codeLine="73" d="M485.6667,633.47 C473.4367,649.07 460.4067,665.35 447.9367,680.28 C435.0967,695.65 420.5367,712.14 407.5567,726.52 " fill="none" id="Reservation-UsageReport" style="stroke:#181818;stroke-width:1.0;"/><polygon fill="#000000" points="462.722,675.7649,470.7884,670.7266,466.2864,666.9475,462.722,675.7649" style="stroke:#000000;stroke-width:1.0;"/><text fill="#000000" font-family="sans-serif" font-size="13" lengthAdjust="spacing" textLength="98" x="474.9367" y="676.8484">associated with</text><text fill="#000000" font-family="sans-serif" font-size="13" lengthAdjust="spacing" textLength="8" x="472.0175" y="653.7883">1</text><text fill="#000000" font-family="sans-serif" font-size="13" lengthAdjust="spacing" textLength="22" x="389.8" y="716.1246">0..*</text></g><!--link Reservation to MileageReport--><g id="link_Reservation_MileageReport"><path codeLine="74" d="M589.1167,633.6 C593.8367,643.27 597.9667,653.3 600.9367,663.28 C606.9567,683.52 608.4967,706.98 608.3967,726.39 " fill="none" id="Reservation-MileageReport" style="stroke:#181818;stroke-width:1.0;"/><polygon fill="#000000" points="609.9538,676.8307,610.9912,667.3769,605.2363,668.5727,609.9538,676.8307" style="stroke:#000000;stroke-width:1.0;"/><text fill="#000000" font-family="sans-serif" font-size="13" lengthAdjust="spacing" textLength="98" x="617.9367" y="676.8484">associated with</text><text fill="#000000" font-family="sans-serif" font-size="13" lengthAdjust="spacing" textLength="8" x="585.3276" y="653.9307">1</text><text fill="#000000" font-family="sans-serif" font-size="13" lengthAdjust="spacing" textLength="22" x="584.9822" y="715.9731">0..*</text></g><!--link Reservation to FinancialReport--><g id="link_Reservation_FinancialReport"><path codeLine="75" d="M623.7667,600.43 C656.5867,617.76 693.8267,639.55 724.9367,663.28 C749.2267,681.8 773.3067,706.06 791.8567,726.38 " fill="none" id="Reservation-FinancialReport" style="stroke:#181818;stroke-width:1.0;"/><polygon fill="#000000" points="751.938,674.9335,746.4618,667.1577,742.9372,671.8616,751.938,674.9335" style="stroke:#000000;stroke-width:1.0;"/><text fill="#000000" font-family="sans-serif" font-size="13" lengthAdjust="spacing" textLength="98" x="756.9367" y="676.8484">associated with</text><text fill="#000000" font-family="sans-serif" font-size="13" lengthAdjust="spacing" textLength="8" x="631.5" y="600.9615">1</text><text fill="#000000" font-family="sans-serif" font-size="13" lengthAdjust="spacing" textLength="22" x="762.3903" y="715.9614">0..*</text></g><!--SRC=[bLJ1Qjmm4BtdAyIUjYqRqgi92njAIg4B8Ka_GCWJHqIM5cdiK9hyUyUsl9OixIRsnRPcvkdfpHinnfXGt3cs4y8q6jc_2-QVRuq3gtaD1Nj0AtKrHGvKyMficKQU0CMpnrf_ALXhP3b5XGMEa0k_N_IlWSizQ0GRKYdXO9p4NTqL5knM6Ov9T6yq_5tpC2TXe8mW1W_26DgXO-0_fmnBcuznDxoFMGdSWPD87LqIOMs116ivIgCBEiFn9wcYnAPUNYQu5g0Mbu4kbzH4dTYLjTHX8ohGO4d1FuvNT8A3iNqVWzz0Q-dmnfeNq5u-rwN-fjLhlx0DWN4l5H3C7TYWFtswZmmRR5EQjr9tskI8_hJ6kSV6QjE2dGWF5PAhW7G4wIc4a3BZzzvFlPppY4EEZKlNw-4ieObdvZ-s9TmyQDsl30_RZqpXHoTWCNDmnC_Ye-p6-mVfr7r5dZaLofmhuXzO8PfW0hhdkihS9cYGzxRcofsK9RB04k3z1thFdF19w2gqLGPxl4wltpQRi2dHUZzTwR9tym3axyBLznMZqEhgylBhAl98mMh-0evjVVeK6MleDRgvO58BrPGVvVjTk_JMgFQOFjm7CPa9k-QQb3wN6vgZOEECdgk8-vxMZACVLysR6jUTF7cE97d44192oLubFf_HBKzuQNrAFKNu3m00]--></g></svg>