<?xml version="1.0" encoding="us-ascii" standalone="no"?><svg xmlns="http://www.w3.org/2000/svg" xmlns:xlink="http://www.w3.org/1999/xlink" contentStyleType="text/css" height="396px" preserveAspectRatio="none" style="width:433px;height:396px;background:#FFFFFF;" version="1.1" viewBox="0 0 433 396" width="433px" zoomAndPan="magnify"><defs/><g><ellipse cx="235.19" cy="16" fill="#222222" rx="10" ry="10" style="stroke:#222222;stroke-width:1.0;"/><g id="Idle"><rect fill="#F1F1F1" height="50" rx="12.5" ry="12.5" style="stroke:#181818;stroke-width:0.5;" width="50" x="210.19" y="86"/><line style="stroke:#181818;stroke-width:0.5;" x1="210.19" x2="260.19" y1="112.4883" y2="112.4883"/><text fill="#000000" font-family="sans-serif" font-size="14" lengthAdjust="spacing" textLength="25" x="222.69" y="104.5352">Idle</text></g><g id="Active"><rect fill="#F1F1F1" height="50" rx="12.5" ry="12.5" style="stroke:#181818;stroke-width:0.5;" width="61" x="80.69" y="213"/><line style="stroke:#181818;stroke-width:0.5;" x1="80.69" x2="141.69" y1="239.4883" y2="239.4883"/><text fill="#000000" font-family="sans-serif" font-size="14" lengthAdjust="spacing" textLength="41" x="90.69" y="231.5352">Active</text></g><g id="Paused"><rect fill="#F1F1F1" height="50" rx="12.5" ry="12.5" style="stroke:#181818;stroke-width:0.5;" width="69" x="122.69" y="340"/><line style="stroke:#181818;stroke-width:0.5;" x1="122.69" x2="191.69" y1="366.4883" y2="366.4883"/><text fill="#000000" font-family="sans-serif" font-size="14" lengthAdjust="spacing" textLength="49" x="132.69" y="358.5352">Paused</text></g><ellipse cx="416.19" cy="238" fill="none" rx="11" ry="11" style="stroke:#222222;stroke-width:1.0;"/><ellipse cx="416.19" cy="238" fill="#222222" rx="6" ry="6" style="stroke:#222222;stroke-width:1.0;"/><!--link *start* to Idle--><g id="link_*start*_Idle"><path d="M235.19,26.26 C235.19,39.95 235.19,60.07 235.19,79.52 " fill="none" id="*start*-to-Idle" style="stroke:#181818;stroke-width:1.0;"/><polygon fill="#181818" points="235.19,85.52,239.19,76.52,235.19,80.52,231.19,76.52,235.19,85.52" style="stroke:#181818;stroke-width:1.0;"/></g><!--link Idle to Active--><g id="link_Idle_Active"><path d="M209.79,111.4 C170.81,112.03 97.17,119.7 63.19,166 C51.47,181.95 60.4457,196.4591 76.0357,210.5991 " fill="none" id="Idle-to-Active" style="stroke:#181818;stroke-width:1.0;"/><polygon fill="#181818" points="80.48,214.63,76.5009,205.6208,76.7764,211.2709,71.1263,211.5465,80.48,214.63" style="stroke:#181818;stroke-width:1.0;"/><text fill="#000000" font-family="sans-serif" font-size="13" lengthAdjust="spacing" textLength="79" x="64.19" y="179.5684">Rent Scooter</text></g><!--reverse link Idle to Active--><g id="link_Idle_Active"><path d="M206.7538,140.659 C184.9038,162.679 157.16,190.66 135.33,212.66 " fill="none" id="Idle-backto-Active" style="stroke:#181818;stroke-width:1.0;"/><polygon fill="#181818" points="210.98,136.4,201.8014,139.9711,207.4582,139.9492,207.4801,145.606,210.98,136.4" style="stroke:#181818;stroke-width:1.0;"/><text fill="#000000" font-family="sans-serif" font-size="13" lengthAdjust="spacing" textLength="71" x="182.19" y="179.5684">Stop Rental</text></g><!--link Active to Paused--><g id="link_Active_Paused"><path d="M80.36,248.98 C48.57,261.01 6,282.99 24.19,310 C45.97,342.35 84.8997,354.3552 116.4797,359.5552 " fill="none" id="Active-to-Paused" style="stroke:#181818;stroke-width:1.0;"/><polygon fill="#181818" points="122.4,360.53,114.1695,355.1209,117.4664,359.7176,112.8697,363.0146,122.4,360.53" style="stroke:#181818;stroke-width:1.0;"/><text fill="#000000" font-family="sans-serif" font-size="13" lengthAdjust="spacing" textLength="88" x="25.19" y="306.5684">Pause Renting</text></g><!--reverse link Active to Paused--><g id="link_Active_Paused"><path d="M122.2336,269.0303 C130.3436,291.0503 140.13,317.66 148.23,339.66 " fill="none" id="Active-backto-Paused" style="stroke:#181818;stroke-width:1.0;"/><polygon fill="#181818" points="120.16,263.4,119.5169,273.2278,121.888,268.0919,127.024,270.463,120.16,263.4" style="stroke:#181818;stroke-width:1.0;"/><text fill="#000000" font-family="sans-serif" font-size="13" lengthAdjust="spacing" textLength="101" x="138.19" y="306.5684">Resume Renting</text></g><!--reverse link Idle to Paused--><g id="link_Idle_Paused"><path d="M252.5355,141.7601 C257.1355,150.7401 258.87,155.86 261.19,166 C271.21,209.94 305.38,220.5 248.19,310 C235.23,330.28 211.7,343.94 191.82,352.45 " fill="none" id="Idle-backto-Paused" style="stroke:#181818;stroke-width:1.0;"/><polygon fill="#181818" points="249.8,136.42,250.3431,146.2539,252.0796,140.8701,257.4633,142.6066,249.8,136.42" style="stroke:#181818;stroke-width:1.0;"/><text fill="#000000" font-family="sans-serif" font-size="13" lengthAdjust="spacing" textLength="85" x="281.19" y="243.0684">Cancel Rental</text></g><!--link Idle to *end*--><g id="link_Idle_*end*"><path d="M260.35,129.38 C301.34,157.69 375.6938,209.0292 402.2938,227.4092 " fill="none" id="Idle-to-*end*" style="stroke:#181818;stroke-width:1.0;"/><polygon fill="#181818" points="407.23,230.82,402.0995,222.413,403.1165,227.9777,397.5518,228.9946,407.23,230.82" style="stroke:#181818;stroke-width:1.0;"/></g><!--SRC=[LS-n2W8n30RW_PxYduM-G0T1dDp46yMXjF4irFQuI_NrZIadTaf8FduI0BZkRZ1cZrD8D0moq0ucb7UMyS5pV975XJ9ZzAKmBQhQ0cQ9quC5dbrTATXMbSSygMmRc3ftUMjzzcvBLFSzmcBaCgjngOjATESVEhhiAMtixmKHyjq7]--></g></svg>