<?xml version="1.0" encoding="us-ascii" standalone="no"?><svg xmlns="http://www.w3.org/2000/svg" xmlns:xlink="http://www.w3.org/1999/xlink" contentStyleType="text/css" height="443px" preserveAspectRatio="none" style="width:603px;height:443px;background:#FFFFFF;" version="1.1" viewBox="0 0 603 443" width="603px" zoomAndPan="magnify"><defs/><g><rect fill="none" height="21.1992" style="stroke:none;stroke-width:1.0;" width="570" x="15" y="12.2969"/><ellipse cx="179.75" cy="48.4961" fill="#222222" rx="10" ry="10" style="stroke:#222222;stroke-width:1.0;"/><rect fill="#F1F1F1" height="34.1328" rx="12.5" ry="12.5" style="stroke:#181818;stroke-width:0.5;" width="103" x="128.25" y="78.4961"/><text fill="#000000" font-family="sans-serif" font-size="12" lengthAdjust="spacing" textLength="83" x="138.25" y="100.0977">Locate Scooter</text><rect fill="#F1F1F1" height="34.1328" rx="12.5" ry="12.5" style="stroke:#181818;stroke-width:0.5;" width="99" x="130.25" y="132.6289"/><text fill="#000000" font-family="sans-serif" font-size="12" lengthAdjust="spacing" textLength="79" x="140.25" y="154.2305">Select Scooter</text><rect fill="#F1F1F1" height="34.1328" rx="12.5" ry="12.5" style="stroke:#181818;stroke-width:0.5;" width="88" x="43" y="284.8945"/><text fill="#000000" font-family="sans-serif" font-size="12" lengthAdjust="spacing" textLength="68" x="53" y="306.4961">Initiate Rent</text><rect fill="#F1F1F1" height="34.1328" rx="12.5" ry="12.5" style="stroke:#181818;stroke-width:0.5;" width="132" x="21" y="339.0273"/><text fill="#000000" font-family="sans-serif" font-size="12" lengthAdjust="spacing" textLength="112" x="31" y="360.6289">Start Riding Scooter</text><ellipse cx="87" cy="404.1602" fill="none" rx="11" ry="11" style="stroke:#222222;stroke-width:1.0;"/><ellipse cx="87" cy="404.1602" fill="#222222" rx="6" ry="6" style="stroke:#222222;stroke-width:1.0;"/><rect fill="#F1F1F1" height="34.1328" rx="12.5" ry="12.5" style="stroke:#181818;stroke-width:0.5;" width="96" x="224.5" y="284.8945"/><text fill="#000000" font-family="sans-serif" font-size="12" lengthAdjust="spacing" textLength="76" x="234.5" y="306.4961">Reject Rental</text><rect fill="#F1F1F1" height="34.1328" rx="12.5" ry="12.5" style="stroke:#181818;stroke-width:0.5;" width="199" x="173" y="339.0273"/><text fill="#000000" font-family="sans-serif" font-size="12" lengthAdjust="spacing" textLength="179" x="183" y="360.6289">Notify Renter to Deposit Money</text><ellipse cx="272.5" cy="404.1602" fill="none" rx="11" ry="11" style="stroke:#222222;stroke-width:1.0;"/><ellipse cx="272.5" cy="404.1602" fill="#222222" rx="6" ry="6" style="stroke:#222222;stroke-width:1.0;"/><line style="stroke:#000000;stroke-width:1.5;" x1="15" x2="15" y1="12.2969" y2="431.1602"/><rect fill="#F1F1F1" height="34.1328" rx="12.5" ry="12.5" style="stroke:#181818;stroke-width:0.5;" width="144" x="409.5" y="186.7617"/><text fill="#000000" font-family="sans-serif" font-size="12" lengthAdjust="spacing" textLength="124" x="419.5" y="208.3633">Check Money Deposit</text><polygon fill="#F1F1F1" points="411,240.8945,552,240.8945,564,252.8945,552,264.8945,411,264.8945,399,252.8945,411,240.8945" style="stroke:#181818;stroke-width:0.5;"/><text fill="#000000" font-family="sans-serif" font-size="11" lengthAdjust="spacing" textLength="141" x="411" y="257.0518">Enough Money Deposited?</text><text fill="#000000" font-family="sans-serif" font-size="11" lengthAdjust="spacing" textLength="18" x="381" y="250.5742">yes</text><text fill="#000000" font-family="sans-serif" font-size="11" lengthAdjust="spacing" textLength="14" x="564" y="250.5742">no</text><line style="stroke:#000000;stroke-width:1.5;" x1="376" x2="376" y1="12.2969" y2="431.1602"/><line style="stroke:#000000;stroke-width:1.5;" x1="583" x2="583" y1="12.2969" y2="431.1602"/><line style="stroke:#181818;stroke-width:1.0;" x1="179.75" x2="179.75" y1="58.4961" y2="78.4961"/><polygon fill="#181818" points="175.75,68.4961,179.75,78.4961,183.75,68.4961,179.75,72.4961" style="stroke:#181818;stroke-width:1.0;"/><line style="stroke:#181818;stroke-width:1.0;" x1="179.75" x2="179.75" y1="112.6289" y2="132.6289"/><polygon fill="#181818" points="175.75,122.6289,179.75,132.6289,183.75,122.6289,179.75,126.6289" style="stroke:#181818;stroke-width:1.0;"/><line style="stroke:#181818;stroke-width:1.0;" x1="87" x2="87" y1="319.0273" y2="339.0273"/><polygon fill="#181818" points="83,329.0273,87,339.0273,91,329.0273,87,333.0273" style="stroke:#181818;stroke-width:1.0;"/><line style="stroke:#181818;stroke-width:1.0;" x1="87" x2="87" y1="373.1602" y2="393.1602"/><polygon fill="#181818" points="83,383.1602,87,393.1602,91,383.1602,87,387.1602" style="stroke:#181818;stroke-width:1.0;"/><line style="stroke:#181818;stroke-width:1.0;" x1="272.5" x2="272.5" y1="319.0273" y2="339.0273"/><polygon fill="#181818" points="268.5,329.0273,272.5,339.0273,276.5,329.0273,272.5,333.0273" style="stroke:#181818;stroke-width:1.0;"/><line style="stroke:#181818;stroke-width:1.0;" x1="272.5" x2="272.5" y1="373.1602" y2="393.1602"/><polygon fill="#181818" points="268.5,383.1602,272.5,393.1602,276.5,383.1602,272.5,387.1602" style="stroke:#181818;stroke-width:1.0;"/><line style="stroke:#181818;stroke-width:1.0;" x1="481.5" x2="481.5" y1="220.8945" y2="240.8945"/><polygon fill="#181818" points="477.5,230.8945,481.5,240.8945,485.5,230.8945,481.5,234.8945" style="stroke:#181818;stroke-width:1.0;"/><line style="stroke:#181818;stroke-width:1.0;" x1="179.75" x2="179.75" y1="166.7617" y2="171.7617"/><line style="stroke:#181818;stroke-width:1.0;" x1="179.75" x2="481.5" y1="171.7617" y2="171.7617"/><line style="stroke:#181818;stroke-width:1.0;" x1="481.5" x2="481.5" y1="171.7617" y2="186.7617"/><polygon fill="#181818" points="477.5,176.7617,481.5,186.7617,485.5,176.7617,481.5,180.7617" style="stroke:#181818;stroke-width:1.0;"/><line style="stroke:#181818;stroke-width:1.0;" x1="399" x2="87" y1="252.8945" y2="252.8945"/><line style="stroke:#181818;stroke-width:1.0;" x1="87" x2="87" y1="252.8945" y2="284.8945"/><polygon fill="#181818" points="83,274.8945,87,284.8945,91,274.8945,87,278.8945" style="stroke:#181818;stroke-width:1.0;"/><line style="stroke:#181818;stroke-width:1.0;" x1="564" x2="576" y1="252.8945" y2="252.8945"/><line style="stroke:#181818;stroke-width:1.0;" x1="576" x2="576" y1="252.8945" y2="270.8945"/><line style="stroke:#181818;stroke-width:1.0;" x1="576" x2="272.5" y1="270.8945" y2="270.8945"/><line style="stroke:#181818;stroke-width:1.0;" x1="272.5" x2="272.5" y1="270.8945" y2="284.8945"/><polygon fill="#181818" points="268.5,274.8945,272.5,284.8945,276.5,274.8945,272.5,278.8945" style="stroke:#181818;stroke-width:1.0;"/><text fill="#000000" font-family="sans-serif" font-size="18" lengthAdjust="spacing" textLength="56" x="167.5" y="29.6992">Renter</text><text fill="#000000" font-family="sans-serif" font-size="18" lengthAdjust="spacing" textLength="62" x="448.5" y="29.6992">System</text><!--SRC=[TOz13e9034Ntdg9Bk08iNAWB4tN1d80C1QhO4gOkI3Yyp4pCY8cxzl_sznK0OAcG5QTbjzRWj9uqLCL5RAq8negiTXb5WmDQJM9G5pCxnMTCA0uzsWTSXN668uxYIECojP2TM5vTltMnsUUWFJ9aCxeypC8lM8W-CobvAE-KIJUU6YfgYBijSFn9nj3Wu10obdIYgF3k__5vzV2LU1EbTeP802eVraXU_cTCnxYXzWq0]--></g></svg>