<?xml version="1.0" encoding="us-ascii" standalone="no"?><svg xmlns="http://www.w3.org/2000/svg" xmlns:xlink="http://www.w3.org/1999/xlink" contentStyleType="text/css" height="528px" preserveAspectRatio="none" style="width:1287px;height:528px;background:#FFFFFF;" version="1.1" viewBox="0 0 1287 528" width="1287px" zoomAndPan="magnify"><defs/><g><!--cluster Client Device--><g id="cluster_Client Device"><polygon fill="none" points="435,16,445,6,606,6,606,98.48,596,108.48,435,108.48,435,16" style="stroke:#181818;stroke-width:1.0;"/><line style="stroke:#181818;stroke-width:1.0;" x1="596" x2="606" y1="16" y2="6"/><line style="stroke:#181818;stroke-width:1.0;" x1="435" x2="596" y1="16" y2="16"/><line style="stroke:#181818;stroke-width:1.0;" x1="596" x2="596" y1="16" y2="108.48"/><text fill="#000000" font-family="sans-serif" font-size="14" font-weight="bold" lengthAdjust="spacing" textLength="95" x="469" y="32.5352">Client Device</text></g><!--cluster Cloud Infrastructure--><g id="cluster_Cloud Infrastructure"><polygon fill="none" points="384,181.48,394,171.48,656,171.48,656,501.46,646,511.46,384,511.46,384,181.48" style="stroke:#181818;stroke-width:1.0;"/><line style="stroke:#181818;stroke-width:1.0;" x1="646" x2="656" y1="181.48" y2="171.48"/><line style="stroke:#181818;stroke-width:1.0;" x1="384" x2="646" y1="181.48" y2="181.48"/><line style="stroke:#181818;stroke-width:1.0;" x1="646" x2="646" y1="181.48" y2="511.46"/><text fill="#000000" font-family="sans-serif" font-size="14" font-weight="bold" lengthAdjust="spacing" textLength="146" x="443" y="198.0152">Cloud Infrastructure</text></g><!--cluster Web Server--><g id="cluster_Web Server"><polygon fill="none" points="408,229.48,418,219.48,632,219.48,632,311.97,622,321.97,408,321.97,408,229.48" style="stroke:#181818;stroke-width:1.0;"/><line style="stroke:#181818;stroke-width:1.0;" x1="622" x2="632" y1="229.48" y2="219.48"/><line style="stroke:#181818;stroke-width:1.0;" x1="408" x2="622" y1="229.48" y2="229.48"/><line style="stroke:#181818;stroke-width:1.0;" x1="622" x2="622" y1="229.48" y2="321.97"/><text fill="#000000" font-family="sans-serif" font-size="14" font-weight="bold" lengthAdjust="spacing" textLength="79" x="476.5" y="246.0152">Web Server</text></g><!--cluster Database Server--><g id="cluster_Database Server"><polygon fill="none" points="425,394.97,435,384.97,616,384.97,616,477.46,606,487.46,425,487.46,425,394.97" style="stroke:#181818;stroke-width:1.0;"/><line style="stroke:#181818;stroke-width:1.0;" x1="606" x2="616" y1="394.97" y2="384.97"/><line style="stroke:#181818;stroke-width:1.0;" x1="425" x2="606" y1="394.97" y2="394.97"/><line style="stroke:#181818;stroke-width:1.0;" x1="606" x2="606" y1="394.97" y2="487.46"/><text fill="#000000" font-family="sans-serif" font-size="14" font-weight="bold" lengthAdjust="spacing" textLength="115" x="459" y="411.5052">Database Server</text></g><!--cluster Payment Gateway--><g id="cluster_Payment Gateway"><polygon fill="none" points="16,229.48,26,219.48,276,219.48,276,311.97,266,321.97,16,321.97,16,229.48" style="stroke:#181818;stroke-width:1.0;"/><line style="stroke:#181818;stroke-width:1.0;" x1="266" x2="276" y1="229.48" y2="219.48"/><line style="stroke:#181818;stroke-width:1.0;" x1="16" x2="266" y1="229.48" y2="229.48"/><line style="stroke:#181818;stroke-width:1.0;" x1="266" x2="266" y1="229.48" y2="321.97"/><text fill="#000000" font-family="sans-serif" font-size="14" font-weight="bold" lengthAdjust="spacing" textLength="127" x="78.5" y="246.0152">Payment Gateway</text></g><!--cluster Scooter--><g id="cluster_Scooter"><polygon fill="none" points="680,394.97,690,384.97,1270,384.97,1270,477.46,1260,487.46,680,487.46,680,394.97" style="stroke:#181818;stroke-width:1.0;"/><line style="stroke:#181818;stroke-width:1.0;" x1="1260" x2="1270" y1="394.97" y2="384.97"/><line style="stroke:#181818;stroke-width:1.0;" x1="680" x2="1260" y1="394.97" y2="394.97"/><line style="stroke:#181818;stroke-width:1.0;" x1="1260" x2="1260" y1="394.97" y2="487.46"/><text fill="#000000" font-family="sans-serif" font-size="14" font-weight="bold" lengthAdjust="spacing" textLength="53" x="944.5" y="411.5052">Scooter</text></g><!--entity Mobile App--><g id="elem_Mobile App"><rect fill="#F1F1F1" height="46.4883" rx="2.5" ry="2.5" style="stroke:#181818;stroke-width:0.5;" width="118" x="461" y="46"/><rect fill="#F1F1F1" height="10" style="stroke:#181818;stroke-width:0.5;" width="15" x="559" y="51"/><rect fill="#F1F1F1" height="2" style="stroke:#181818;stroke-width:0.5;" width="4" x="557" y="53"/><rect fill="#F1F1F1" height="2" style="stroke:#181818;stroke-width:0.5;" width="4" x="557" y="57"/><text fill="#000000" font-family="sans-serif" font-size="14" lengthAdjust="spacing" textLength="78" x="476" y="79.5352">Mobile App</text></g><!--entity Scooter Rental System--><g id="elem_Scooter Rental System"><rect fill="#F1F1F1" height="46.4883" rx="2.5" ry="2.5" style="stroke:#181818;stroke-width:0.5;" width="191" x="424.5" y="259.48"/><rect fill="#F1F1F1" height="10" style="stroke:#181818;stroke-width:0.5;" width="15" x="595.5" y="264.48"/><rect fill="#F1F1F1" height="2" style="stroke:#181818;stroke-width:0.5;" width="4" x="593.5" y="266.48"/><rect fill="#F1F1F1" height="2" style="stroke:#181818;stroke-width:0.5;" width="4" x="593.5" y="270.48"/><text fill="#000000" font-family="sans-serif" font-size="14" lengthAdjust="spacing" textLength="151" x="439.5" y="293.0152">Scooter Rental System</text></g><!--entity Database schema--><g id="elem_Database schema"><rect fill="#F1F1F1" height="46.4883" rx="2.5" ry="2.5" style="stroke:#181818;stroke-width:0.5;" width="159" x="440.5" y="424.97"/><rect fill="#F1F1F1" height="10" style="stroke:#181818;stroke-width:0.5;" width="15" x="579.5" y="429.97"/><rect fill="#F1F1F1" height="2" style="stroke:#181818;stroke-width:0.5;" width="4" x="577.5" y="431.97"/><rect fill="#F1F1F1" height="2" style="stroke:#181818;stroke-width:0.5;" width="4" x="577.5" y="435.97"/><text fill="#000000" font-family="sans-serif" font-size="14" lengthAdjust="spacing" textLength="119" x="455.5" y="458.5052">Database schema</text></g><!--entity Payment Processing Service--><g id="elem_Payment Processing Service"><rect fill="#F1F1F1" height="46.4883" rx="2.5" ry="2.5" style="stroke:#181818;stroke-width:0.5;" width="228" x="32" y="259.48"/><rect fill="#F1F1F1" height="10" style="stroke:#181818;stroke-width:0.5;" width="15" x="240" y="264.48"/><rect fill="#F1F1F1" height="2" style="stroke:#181818;stroke-width:0.5;" width="4" x="238" y="266.48"/><rect fill="#F1F1F1" height="2" style="stroke:#181818;stroke-width:0.5;" width="4" x="238" y="270.48"/><text fill="#000000" font-family="sans-serif" font-size="14" lengthAdjust="spacing" textLength="188" x="47" y="293.0152">Payment Processing Service</text></g><!--entity GPS Module--><g id="elem_GPS Module"><rect fill="#F1F1F1" height="46.4883" rx="2.5" ry="2.5" style="stroke:#181818;stroke-width:0.5;" width="121" x="696.5" y="424.97"/><rect fill="#F1F1F1" height="10" style="stroke:#181818;stroke-width:0.5;" width="15" x="797.5" y="429.97"/><rect fill="#F1F1F1" height="2" style="stroke:#181818;stroke-width:0.5;" width="4" x="795.5" y="431.97"/><rect fill="#F1F1F1" height="2" style="stroke:#181818;stroke-width:0.5;" width="4" x="795.5" y="435.97"/><text fill="#000000" font-family="sans-serif" font-size="14" lengthAdjust="spacing" textLength="81" x="711.5" y="458.5052">GPS Module</text></g><!--entity Lock/Unlock Mechanism--><g id="elem_Lock/Unlock Mechanism"><rect fill="#F1F1F1" height="46.4883" rx="2.5" ry="2.5" style="stroke:#181818;stroke-width:0.5;" width="206" x="853" y="424.97"/><rect fill="#F1F1F1" height="10" style="stroke:#181818;stroke-width:0.5;" width="15" x="1039" y="429.97"/><rect fill="#F1F1F1" height="2" style="stroke:#181818;stroke-width:0.5;" width="4" x="1037" y="431.97"/><rect fill="#F1F1F1" height="2" style="stroke:#181818;stroke-width:0.5;" width="4" x="1037" y="435.97"/><text fill="#000000" font-family="sans-serif" font-size="14" lengthAdjust="spacing" textLength="166" x="868" y="458.5052">Lock/Unlock Mechanism</text></g><!--entity Battery Controller--><g id="elem_Battery Controller"><rect fill="#F1F1F1" height="46.4883" rx="2.5" ry="2.5" style="stroke:#181818;stroke-width:0.5;" width="161" x="1093.5" y="424.97"/><rect fill="#F1F1F1" height="10" style="stroke:#181818;stroke-width:0.5;" width="15" x="1234.5" y="429.97"/><rect fill="#F1F1F1" height="2" style="stroke:#181818;stroke-width:0.5;" width="4" x="1232.5" y="431.97"/><rect fill="#F1F1F1" height="2" style="stroke:#181818;stroke-width:0.5;" width="4" x="1232.5" y="435.97"/><text fill="#000000" font-family="sans-serif" font-size="14" lengthAdjust="spacing" textLength="121" x="1108.5" y="458.5052">Battery Controller</text></g><!--link Mobile App to Scooter Rental System--><g id="link_Mobile App_Scooter Rental System"><path d="M520,92.87 C520,133.58 520,218.67 520,259.26 " fill="none" id="Mobile App-Scooter Rental System" style="stroke:#181818;stroke-width:1.0;"/><text fill="#000000" font-family="sans-serif" font-size="13" lengthAdjust="spacing" textLength="81" x="528" y="145.0484">API Requests</text><path d="M527.0711,169.0389 A10,10 0 0 0 512.9289 169.0389" fill="none" style="stroke:#181818;stroke-width:1.5;"/><ellipse cx="520" cy="176.11" fill="#FFFFFF" rx="6" ry="6" style="stroke:#181818;stroke-width:1.5;"/></g><!--link Scooter Rental System to Database schema--><g id="link_Scooter Rental System_Database schema"><path d="M520,306.46 C520,337.69 520,393.54 520,424.68 " fill="none" id="Scooter Rental System-Database schema" style="stroke:#181818;stroke-width:1.0;"/><text fill="#000000" font-family="sans-serif" font-size="13" lengthAdjust="spacing" textLength="69" x="528" y="358.5384">Read/Write</text><path d="M527.0711,358.5327 A10,10 0 0 0 512.9289 358.5327" fill="none" style="stroke:#181818;stroke-width:1.5;"/><ellipse cx="520" cy="365.6038" fill="#FFFFFF" rx="6" ry="6" style="stroke:#181818;stroke-width:1.5;"/></g><!--link Payment Processing Service to Scooter Rental System--><g id="link_Payment Processing Service_Scooter Rental System"><path d="M260.5,282.73 C312.9,282.73 374.3,282.73 424.21,282.73 " fill="none" id="Payment Processing Service-Scooter Rental System" style="stroke:#181818;stroke-width:1.0;"/><text fill="#000000" font-family="sans-serif" font-size="13" lengthAdjust="spacing" textLength="114" x="285.25" y="269.2984">Payment Requests</text><path d="M350.3598,289.8011 A10,10 0 0 0 350.3598 275.6589" fill="none" style="stroke:#181818;stroke-width:1.5;"/><ellipse cx="343.2888" cy="282.73" fill="#FFFFFF" rx="6" ry="6" style="stroke:#181818;stroke-width:1.5;"/></g><!--link Scooter Rental System to Lock/Unlock Mechanism--><g id="link_Scooter Rental System_Lock/Unlock Mechanism"><path d="M615.69,293.85 C668.53,301.67 734.51,315.15 790,337.97 C843.13,359.82 897.37,399.46 928.8,424.51 " fill="none" id="Scooter Rental System-Lock/Unlock Mechanism" style="stroke:#181818;stroke-width:1.0;"/><text fill="#000000" font-family="sans-serif" font-size="13" lengthAdjust="spacing" textLength="95" x="856" y="358.5384">Access Control</text><path d="M786.1497,328.7409 A10,10 0 0 0 780.7709 341.8203" fill="none" style="stroke:#181818;stroke-width:1.5;"/><ellipse cx="790" cy="337.97" fill="#FFFFFF" rx="6" ry="6" style="stroke:#181818;stroke-width:1.5;"/></g><!--link Scooter Rental System to GPS Module--><g id="link_Scooter Rental System_GPS Module"><path d="M561.4,306.44 C577.74,315.78 596.52,326.97 613,337.97 C654.89,365.93 700.86,401.77 729.32,424.62 " fill="none" id="Scooter Rental System-GPS Module" style="stroke:#181818;stroke-width:1.0;"/><text fill="#000000" font-family="sans-serif" font-size="13" lengthAdjust="spacing" textLength="113" x="661" y="358.5384">Location Tracking</text><path d="M674.8121,373.3075 A10,10 0 0 0 666.2925 384.5954" fill="none" style="stroke:#181818;stroke-width:1.5;"/><ellipse cx="676.1963" cy="383.2113" fill="#FFFFFF" rx="6" ry="6" style="stroke:#181818;stroke-width:1.5;"/></g><!--link Scooter Rental System to Battery Controller--><g id="link_Scooter Rental System_Battery Controller"><path d="M615.69,289.15 C706.95,295.77 847.75,309.78 967,337.97 C1017.07,349.81 1030.43,353.09 1076,376.97 C1101.59,390.38 1128.07,409.75 1147.04,424.75 " fill="none" id="Scooter Rental System-Battery Controller" style="stroke:#181818;stroke-width:1.0;"/><text fill="#000000" font-family="sans-serif" font-size="13" lengthAdjust="spacing" textLength="113" x="1066" y="358.5384">Location Tracking</text><path d="M961.7453,329.4619 A10,10 0 0 0 958.4919 343.2247" fill="none" style="stroke:#181818;stroke-width:1.5;"/><ellipse cx="967" cy="337.97" fill="#FFFFFF" rx="6" ry="6" style="stroke:#181818;stroke-width:1.5;"/></g><!--SRC=[bP71Ri8m38RlVGgBqow8dNTZ826aLQhe9WuL1pSr8o9DME8oLHFllhIZhAqAWbminVPd_xy10BJ924Op9KappEae1OtW9u3pIqAJIaKmFHmszUSfg4FJPeeCbdfhqR4j11Usq_rNjQOKOh97ikrSJO-5CKmMLduwAeXBnvHlBZMd7ccEZ2awkeQxv9tOKOvzK6Vt2Ckyqhn0fcyiEwARN6ID8EUa_gmdUcy6J3Xhw00MKGoXoGf5_piaRqRi9nzQ-G0XYHrgwLfYarTapobXPZHRenJPphJsAM3yz3o-PX-ym3HQ-i-lWXoxu8RJPqxVDqzO4MQJjPLCj_iLRRbctF3Cuvhi0qiDsrM94zM0ngOxIArh-7RFHPP6mxj5iVTxta4OECqWwHS0]--></g></svg>