<?xml version="1.0" encoding="us-ascii" standalone="no"?><svg xmlns="http://www.w3.org/2000/svg" xmlns:xlink="http://www.w3.org/1999/xlink" contentStyleType="text/css" height="811px" preserveAspectRatio="none" style="width:453px;height:811px;background:#FFFFFF;" version="1.1" viewBox="0 0 453 811" width="453px" zoomAndPan="magnify"><defs/><g><!--cluster Scooter Rental System--><g id="cluster_Scooter Rental System"><rect fill="none" height="798" rx="2.5" ry="2.5" style="stroke:#181818;stroke-width:1.0;" width="254.33" x="95" y="7"/><text fill="#000000" font-family="sans-serif" font-size="14" font-weight="bold" lengthAdjust="spacing" textLength="161" x="141.665" y="22.5352">Scooter Rental System</text></g><g id="elem_UC_CreateAccount"><ellipse cx="222.1639" cy="412.0028" fill="#F1F1F1" rx="74.5639" ry="17.3128" style="stroke:#181818;stroke-width:0.5;"/><text fill="#000000" font-family="sans-serif" font-size="14" lengthAdjust="spacing" textLength="105" x="169.6639" y="415.2938">Create Account</text></g><g id="elem_UC_SignIn"><ellipse cx="222.1618" cy="545.9964" fill="#F1F1F1" rx="65.8318" ry="15.5664" style="stroke:#181818;stroke-width:0.5;"/><text fill="#000000" font-family="sans-serif" font-size="14" lengthAdjust="spacing" textLength="82" x="178.1618" y="550.0139">Sign In User</text></g><g id="elem_UC_DepositMoney"><ellipse cx="222.1604" cy="342.9981" fill="#F1F1F1" rx="72.9404" ry="16.9881" style="stroke:#181818;stroke-width:0.5;"/><text fill="#000000" font-family="sans-serif" font-size="14" lengthAdjust="spacing" textLength="101" x="171.3541" y="346.3731">Deposit Money</text></g><g id="elem_UC_LocateScooter"><ellipse cx="222.1603" cy="273.9981" fill="#F1F1F1" rx="72.5403" ry="16.9081" style="stroke:#181818;stroke-width:0.5;"/><text fill="#000000" font-family="sans-serif" font-size="14" lengthAdjust="spacing" textLength="100" x="171.6632" y="277.4241">Locate Scooter</text></g><g id="elem_UC_RentScooter"><ellipse cx="222.1572" cy="206.0014" fill="#F1F1F1" rx="67.6072" ry="15.9214" style="stroke:#181818;stroke-width:0.5;"/><text fill="#000000" font-family="sans-serif" font-size="14" lengthAdjust="spacing" textLength="87" x="175.6572" y="210.019">Rent Scooter</text></g><g id="elem_UC_PauseRenting"><ellipse cx="222.1565" cy="138.0013" fill="#F1F1F1" rx="71.3565" ry="16.6713" style="stroke:#181818;stroke-width:0.5;"/><text fill="#000000" font-family="sans-serif" font-size="14" lengthAdjust="spacing" textLength="97" x="172.5743" y="141.5785">Pause Renting</text></g><g id="elem_UC_EndRenting"><ellipse cx="222.163" cy="479.9966" fill="#F1F1F1" rx="66.183" ry="15.6366" style="stroke:#181818;stroke-width:0.5;"/><text fill="#000000" font-family="sans-serif" font-size="14" lengthAdjust="spacing" textLength="83" x="177.663" y="484.0142">End Renting</text></g><g id="elem_UC_DisplayUsage"><ellipse cx="222.1618" cy="612.9964" fill="#F1F1F1" rx="70.5818" ry="16.5164" style="stroke:#181818;stroke-width:0.5;"/><text fill="#000000" font-family="sans-serif" font-size="14" lengthAdjust="spacing" textLength="95" x="173.1784" y="616.6724">Display Usage</text></g><g id="elem_UC_ListBrokenScooters"><ellipse cx="222.1612" cy="768.9962" fill="#F1F1F1" rx="88.5812" ry="20.1162" style="stroke:#181818;stroke-width:0.5;"/><text fill="#000000" font-family="sans-serif" font-size="14" lengthAdjust="spacing" textLength="138" x="153.1612" y="772.2873">List Broken Scooters</text></g><g id="elem_UC_DisplayMileagePerScooter"><ellipse cx="222.1626" cy="689.0025" fill="#F1F1F1" rx="111.1626" ry="24.6325" style="stroke:#181818;stroke-width:0.5;"/><text fill="#000000" font-family="sans-serif" font-size="14" lengthAdjust="spacing" textLength="188" x="128.1626" y="692.2935">Display Mileage Per Scooter</text></g><g id="elem_UC_DisplayGrossTurnover"><ellipse cx="222.1578" cy="64.0036" fill="#F1F1F1" rx="97.9178" ry="21.9836" style="stroke:#181818;stroke-width:0.5;"/><text fill="#000000" font-family="sans-serif" font-size="14" lengthAdjust="spacing" textLength="159" x="142.6578" y="67.2946">Display Gross Turnover</text></g><!--entity Renter--><g id="elem_Renter"><ellipse cx="28.5" cy="313.26" fill="#F1F1F1" rx="8" ry="8" style="stroke:#181818;stroke-width:0.5;"/><path d="M28.5,321.26 L28.5,348.26 M15.5,329.26 L41.5,329.26 M28.5,348.26 L15.5,363.26 M28.5,348.26 L41.5,363.26 " fill="none" style="stroke:#181818;stroke-width:0.5;"/><text fill="#000000" font-family="sans-serif" font-size="14" lengthAdjust="spacing" textLength="45" x="6" y="378.2952">Renter</text></g><!--entity Admin--><g id="elem_Admin"><ellipse cx="28.5" cy="621.26" fill="#F1F1F1" rx="8" ry="8" style="stroke:#181818;stroke-width:0.5;"/><path d="M28.5,629.26 L28.5,656.26 M15.5,637.26 L41.5,637.26 M28.5,656.26 L15.5,671.26 M28.5,656.26 L41.5,671.26 " fill="none" style="stroke:#181818;stroke-width:0.5;"/><text fill="#000000" font-family="sans-serif" font-size="14" lengthAdjust="spacing" textLength="45" x="6" y="686.2952">Admin</text></g><!--entity Finance--><g id="elem_Finance"><ellipse cx="419.83" cy="275.26" fill="#F1F1F1" rx="8" ry="8" style="stroke:#181818;stroke-width:0.5;"/><path d="M419.83,283.26 L419.83,310.26 M406.83,291.26 L432.83,291.26 M419.83,310.26 L406.83,325.26 M419.83,310.26 L432.83,325.26 " fill="none" style="stroke:#181818;stroke-width:0.5;"/><text fill="#000000" font-family="sans-serif" font-size="14" lengthAdjust="spacing" textLength="53" x="393.33" y="340.2952">Finance</text></g><!--link Renter to UC_CreateAccount--><g id="link_Renter_UC_CreateAccount"><path d="M51.41,357.91 C61.83,364.49 74.69,371.87 87,377 C111.56,387.23 134.0686,393.7698 158.3686,399.4698 " fill="none" id="Renter-to-UC_CreateAccount" style="stroke:#181818;stroke-width:1.0;"/><polygon fill="#181818" points="164.21,400.84,156.3613,394.8904,159.3421,399.6982,154.5344,402.679,164.21,400.84" style="stroke:#181818;stroke-width:1.0;"/></g><!--link Renter to UC_SignIn--><g id="link_Renter_UC_SignIn"><path d="M32.07,381.48 C36.76,420.21 49.94,478.96 87,513 C105.9,530.36 126.5243,537.9675 151.0143,542.1175 " fill="none" id="Renter-to-UC_SignIn" style="stroke:#181818;stroke-width:1.0;"/><polygon fill="#181818" points="156.93,543.12,148.7248,537.6725,152.0003,542.2846,147.3882,545.5601,156.93,543.12" style="stroke:#181818;stroke-width:1.0;"/></g><!--link Renter to UC_DepositMoney--><g id="link_Renter_UC_DepositMoney"><path d="M51.49,343 C75.18,343 108.17,343 142.79,343 " fill="none" id="Renter-to-UC_DepositMoney" style="stroke:#181818;stroke-width:1.0;"/><polygon fill="#181818" points="148.79,343,139.79,339,143.79,343,139.79,347,148.79,343" style="stroke:#181818;stroke-width:1.0;"/></g><!--link Renter to UC_LocateScooter--><g id="link_Renter_UC_LocateScooter"><path d="M51.41,328.09 C61.83,321.51 74.69,314.13 87,309 C112,298.59 135.0961,291.9299 159.6761,286.2099 " fill="none" id="Renter-to-UC_LocateScooter" style="stroke:#181818;stroke-width:1.0;"/><polygon fill="#181818" points="165.52,284.85,155.8476,282.994,160.6501,285.9833,157.6608,290.7858,165.52,284.85" style="stroke:#181818;stroke-width:1.0;"/></g><!--link Renter to UC_RentScooter--><g id="link_Renter_UC_RentScooter"><path d="M42.23,304.49 C51.39,282.52 65.88,256.22 87,240 C107.3,224.41 128.0262,217.0337 152.2062,212.4237 " fill="none" id="Renter-to-UC_RentScooter" style="stroke:#181818;stroke-width:1.0;"/><polygon fill="#181818" points="158.1,211.3,148.5101,209.0563,153.1885,212.2364,150.0084,216.9147,158.1,211.3" style="stroke:#181818;stroke-width:1.0;"/></g><!--link Renter to UC_PauseRenting--><g id="link_Renter_UC_PauseRenting"><path d="M32.21,304.27 C37.01,265.61 50.29,207.19 87,173 C104.88,156.35 123.7893,148.5907 147.1993,143.8507 " fill="none" id="Renter-to-UC_PauseRenting" style="stroke:#181818;stroke-width:1.0;"/><polygon fill="#181818" points="153.08,142.66,143.4652,140.5256,148.1794,143.6523,145.0528,148.3665,153.08,142.66" style="stroke:#181818;stroke-width:1.0;"/></g><!--link Renter to UC_EndRenting--><g id="link_Renter_UC_EndRenting"><path d="M42,381.68 C51.1,403.93 65.62,430.63 87,447 C107.38,462.6 128.2562,469.8597 152.5262,474.2597 " fill="none" id="Renter-to-UC_EndRenting" style="stroke:#181818;stroke-width:1.0;"/><polygon fill="#181818" points="158.43,475.33,150.2879,469.7887,153.5102,474.4381,148.8608,477.6604,158.43,475.33" style="stroke:#181818;stroke-width:1.0;"/></g><!--link Admin to UC_SignIn--><g id="link_Admin_UC_SignIn"><path d="M51.42,614.47 C60.87,601.53 72.98,587.96 87,579 C109.03,564.91 130.725,557.9577 155.145,553.3277 " fill="none" id="Admin-to-UC_SignIn" style="stroke:#181818;stroke-width:1.0;"/><polygon fill="#181818" points="161.04,552.21,151.4524,549.9565,156.1275,553.1414,152.9427,557.8165,161.04,552.21" style="stroke:#181818;stroke-width:1.0;"/></g><!--link Admin to UC_DisplayUsage--><g id="link_Admin_UC_DisplayUsage"><path d="M51.49,646.64 C79.51,641.08 123.0245,632.4566 161.3145,624.8666 " fill="none" id="Admin-to-UC_DisplayUsage" style="stroke:#181818;stroke-width:1.0;"/><polygon fill="#181818" points="167.2,623.7,157.594,621.5263,162.2954,624.6722,159.1495,629.3736,167.2,623.7" style="stroke:#181818;stroke-width:1.0;"/></g><!--link Admin to UC_ListBrokenScooters--><g id="link_Admin_UC_ListBrokenScooters"><path d="M49.77,689.66 C59.28,704.49 71.88,720.39 87,731 C104.93,743.58 121.1666,750.4591 142.1366,756.1091 " fill="none" id="Admin-to-UC_ListBrokenScooters" style="stroke:#181818;stroke-width:1.0;"/><polygon fill="#181818" points="147.93,757.67,140.2805,751.4663,143.1022,756.3692,138.1993,759.1909,147.93,757.67" style="stroke:#181818;stroke-width:1.0;"/></g><!--link Admin to UC_DisplayMileagePerScooter--><g id="link_Admin_UC_DisplayMileagePerScooter"><path d="M51.49,655.36 C72.82,659.59 100.6645,665.1136 132.4545,671.4136 " fill="none" id="Admin-to-UC_DisplayMileagePerScooter" style="stroke:#181818;stroke-width:1.0;"/><polygon fill="#181818" points="138.34,672.58,130.2893,666.9068,133.4354,671.608,128.7341,674.7541,138.34,672.58" style="stroke:#181818;stroke-width:1.0;"/></g><!--link UC_SignIn to Finance--><g id="link_UC_SignIn_Finance"><path d="M287.39,543.54 C312.03,539.48 338.68,530.81 357.33,513 C404.04,468.4 415.76,390.21 418.41,343.45 " fill="none" id="UC_SignIn-Finance" style="stroke:#181818;stroke-width:1.0;"/></g><!--link UC_DisplayGrossTurnover to Finance--><g id="link_UC_DisplayGrossTurnover_Finance"><path d="M306.64,75.3 C325.25,81.26 343.53,90.3 357.33,104 C401.22,147.58 413.95,221.57 417.54,266.59 " fill="none" id="UC_DisplayGrossTurnover-Finance" style="stroke:#181818;stroke-width:1.0;"/></g><!--SRC=[VLJ9ReCm4Btp5QFSymkLqdHHf4QAIdEkB3EbLiauiaqbLFNVwvLYCE44RnayCmy003hyC60aAD5-6cY4Gcw4fAgo731kf89N98Dg0koQYw39yvCWHXo3nnLWr7O8cvfBQPs-0EkW7hJ1omP-Wj1TlKREj9Nk5JA3iEDSzcGsm3ISz-y1ZU3IL8kMu41mrgYInM47MceVy2grC72KX4CIHz1ZXKEzIEuE5Tj8fe16S6bopSuj3bird9YzzJCIr2Q71oEsj3nICpTOACaBpGjzxTXW1yLQ79iFeCSAlGjju5x9BwJKZHudOBb09MRzbKVHeNq1d6mEPbE9agYmWZIYzMhFIceDRxqY-RqevCd4_HS9yONjzcuzKhbcbg6Sp39JbfGJacjAaSWLnGZaajBI_SUvqad65VUVAMxikLJfnYB7erZB-BkOaAKDpgM_rHy0]--></g></svg>