<?xml version="1.0" encoding="utf-8"?>
<!-- Generator: Adobe Illustrator 25.2.3, SVG Export Plug-In . SVG Version: 6.00 Build 0)  -->
<svg version="1.1" id="Lager_1" xmlns="http://www.w3.org/2000/svg" xmlns:xlink="http://www.w3.org/1999/xlink" x="0px" y="0px"
	 viewBox="0 0 800 455" style="enable-background:new 0 0 800 455;" xml:space="preserve">
<style type="text/css">
	.st0{fill:#404040;}
	.st1{fill:#B18BE8;stroke:#404040;stroke-width:4;stroke-linecap:round;stroke-linejoin:round;stroke-miterlimit:10;}
	.st2{fill:#4ED1A1;stroke:#404040;stroke-width:4;stroke-linecap:round;stroke-linejoin:round;stroke-miterlimit:10;}
	.st3{fill:none;stroke:#404040;stroke-width:4;stroke-miterlimit:10;}
	.st4{fill:#4ED1A1;stroke:#404040;stroke-width:4;stroke-miterlimit:10;}
	.st5{fill:#B18BE8;stroke:#404040;stroke-width:4;stroke-miterlimit:10;}
	.st6{fill:none;stroke:#CCCCCC;stroke-width:4;stroke-linecap:round;stroke-linejoin:round;stroke-dasharray:0,14.1243;}
	.st7{fill:none;stroke:#CCCCCC;stroke-width:4;stroke-linecap:round;stroke-linejoin:round;}
	.st8{fill:none;stroke:#CCCCCC;stroke-width:4;stroke-linecap:round;stroke-linejoin:round;stroke-dasharray:0,14.9632;}
	.st9{fill:#B3E3FF;stroke:#404040;stroke-width:4;stroke-miterlimit:10;}
	.st10{fill:#B3E3FF;stroke:#404040;stroke-width:4;stroke-linecap:round;stroke-linejoin:round;stroke-miterlimit:10;}
	.st11{fill:none;stroke:#404040;stroke-width:4;stroke-linecap:round;stroke-linejoin:round;stroke-miterlimit:10;}
	.st12{fill:none;stroke:#CCCCCC;stroke-width:4;stroke-linecap:round;stroke-linejoin:round;stroke-dasharray:0,13.6844;}
	.st13{fill:none;stroke:#CCCCCC;stroke-width:4;stroke-linecap:round;stroke-linejoin:round;stroke-dasharray:0,13.7717;}
	.st14{fill:none;stroke:#CCCCCC;stroke-width:4;stroke-linecap:round;stroke-linejoin:round;stroke-dasharray:0,13.6492;}
	.st15{fill:none;stroke:#CCCCCC;stroke-width:4;stroke-linecap:round;stroke-linejoin:round;stroke-dasharray:0,13.907;}
	.st16{fill:#414141;}
</style>
<path class="st0" d="M150.8,35.9h-1.6v4.3h-1.5V29.7h4c2,0,3.3,1.4,3.3,3.2c0,1.5-1,2.7-2.6,3l2.5,4.5h-1.7L150.8,35.9z M151.5,34.6
	c1.2,0,2-0.7,2-1.8s-0.8-1.8-2-1.8h-2.2v3.6H151.5z M163.6,38.2c-0.4,1.3-1.6,2.3-3.2,2.3c-1.9,0-3.6-1.4-3.6-3.9
	c0-2.3,1.6-3.8,3.5-3.8c2.2,0,3.5,1.5,3.5,3.8v0.5h-5.4c0,1.3,1,2.2,2.2,2.2s1.8-0.6,2-1.5L163.6,38.2z M162.2,35.9
	c0-1-0.7-1.8-2-1.8c-1.2,0-1.9,0.9-2,1.8H162.2z M166.2,40.3V29.4h1.4v10.9H166.2z M177,38.2c-0.4,1.3-1.6,2.3-3.2,2.3
	c-1.9,0-3.6-1.4-3.6-3.9c0-2.3,1.6-3.8,3.4-3.8c2.2,0,3.5,1.5,3.5,3.8v0.5h-5.4c0,1.3,1,2.2,2.2,2.2s1.8-0.6,2-1.5L177,38.2z
	 M175.6,35.9c0-1-0.7-1.8-2-1.8c-1.2,0-1.9,0.9-2,1.8H175.6z M181.4,36.2l1.9-0.3c0.4-0.1,0.6-0.3,0.6-0.5c0-0.7-0.5-1.3-1.6-1.3
	c-1,0-1.5,0.6-1.6,1.5l-1.4-0.3c0.2-1.4,1.4-2.3,3-2.3c2.2,0,3,1.2,3,2.6v3.6c0,0.6,0.1,1,0.1,1.2H184c0-0.2-0.1-0.5-0.1-1
	c-0.3,0.5-1,1.2-2.3,1.2c-1.5,0-2.4-1-2.4-2.2C179.2,37.1,180.1,36.3,181.4,36.2z M183.9,37.2v-0.3l-2.2,0.3c-0.6,0.1-1,0.4-1,1.1
	c0,0.5,0.4,1,1.2,1C182.9,39.3,183.9,38.8,183.9,37.2z M188.8,38c0.1,0.8,0.7,1.3,1.7,1.3c0.8,0,1.2-0.4,1.2-1
	c0-0.4-0.3-0.8-0.9-0.9l-1.2-0.3c-1.1-0.2-1.8-1-1.8-2c0-1.2,1.2-2.3,2.6-2.3c2,0,2.6,1.3,2.7,1.9l-1.2,0.5
	c-0.1-0.4-0.4-1.2-1.5-1.2c-0.7,0-1.2,0.5-1.2,1c0,0.4,0.3,0.8,0.8,0.9l1.2,0.3c1.3,0.3,2,1.1,2,2.1s-0.9,2.2-2.6,2.2
	c-2,0-2.8-1.3-2.9-2.1L188.8,38L188.8,38z M202,38.2c-0.4,1.3-1.6,2.3-3.2,2.3c-1.9,0-3.6-1.4-3.6-3.9c0-2.3,1.6-3.8,3.5-3.8
	c2.2,0,3.5,1.5,3.5,3.8v0.5h-5.4c0,1.3,1,2.2,2.2,2.2s1.8-0.6,2-1.5L202,38.2z M200.5,35.9c0-1-0.7-1.8-2-1.8c-1.2,0-1.9,0.9-2,1.8
	H200.5z"/>
<path class="st1" d="M145.5,9.3h96.2v50h-96.2V9.3z"/>
<path class="st0" d="M165.8,40.3V29.7h3.7c2.7,0,5.1,1.8,5.1,5.3s-2.4,5.3-5.1,5.3H165.8z M169.5,39c2,0,3.6-1.3,3.6-4s-1.6-4-3.6-4
	h-2.2v8H169.5z M183.5,38.2c-0.4,1.3-1.6,2.3-3.2,2.3c-1.9,0-3.6-1.4-3.6-3.9c0-2.3,1.6-3.8,3.5-3.8c2.2,0,3.5,1.5,3.5,3.8v0.5h-5.4
	c0,1.3,1,2.2,2.2,2.2s1.8-0.6,2-1.5L183.5,38.2z M182.1,35.9c0-1-0.7-1.8-2-1.8c-1.2,0-1.9,0.9-2,1.8H182.1z M189.6,40.3h-1.4
	l-2.9-7.2h1.6l2.1,5.6l2.1-5.6h1.5L189.6,40.3L189.6,40.3z M200.3,38.2c-0.4,1.3-1.6,2.3-3.2,2.3c-1.9,0-3.6-1.4-3.6-3.9
	c0-2.3,1.6-3.8,3.5-3.8c2.2,0,3.5,1.5,3.5,3.8v0.5h-5.4c0,1.3,1,2.2,2.2,2.2s1.8-0.6,2-1.5L200.3,38.2z M198.9,35.9
	c0-1-0.7-1.8-2-1.8c-1.2,0-1.9,0.9-2,1.8H198.9z M202.9,40.3V29.4h1.4v10.9H202.9z M214.2,36.7c0,2.2-1.5,3.8-3.7,3.8
	s-3.7-1.6-3.7-3.8s1.5-3.8,3.7-3.8S214.2,34.5,214.2,36.7z M212.8,36.7c0-1.7-1-2.6-2.2-2.6s-2.2,0.9-2.2,2.6c0,1.7,1,2.6,2.2,2.6
	S212.8,38.4,212.8,36.7z M216.8,43.1v-10h1.4v1.1c0.4-0.7,1.2-1.3,2.4-1.3c2.2,0,3.3,1.7,3.3,3.8s-1.2,3.8-3.4,3.8
	c-1.1,0-2-0.5-2.3-1.2v3.8C218.2,43.1,216.8,43.1,216.8,43.1z M220.3,34.2c-1.3,0-2.1,1.1-2.1,2.5c0,1.5,0.9,2.5,2.1,2.5
	c1.3,0,2.1-1.1,2.1-2.5C222.4,35.2,221.6,34.2,220.3,34.2z"/>
<path class="st2" d="M283.3,9.3h96.2v50h-96.2V9.3z"/>
<path class="st0" d="M305.9,39.8V29.2h6.5v1.4h-5V34h4.5v1.4h-4.5v4.5h-1.5V39.8z M320.5,37.7c-0.4,1.3-1.6,2.3-3.2,2.3
	c-1.9,0-3.6-1.4-3.6-3.9c0-2.3,1.6-3.8,3.4-3.8c2.2,0,3.5,1.5,3.5,3.8v0.5h-5.4c0,1.3,1,2.2,2.2,2.2s1.8-0.6,2-1.5L320.5,37.7z
	 M319.1,35.4c0-1-0.7-1.8-2-1.8c-1.2,0-1.9,0.9-2,1.8H319.1z M324.9,35.7l2-0.3c0.4-0.1,0.6-0.3,0.6-0.5c0-0.7-0.5-1.3-1.6-1.3
	c-1,0-1.5,0.6-1.6,1.5l-1.4-0.3c0.2-1.4,1.4-2.3,3-2.3c2.2,0,3,1.2,3,2.6v3.6c0,0.6,0.1,1,0.1,1.2h-1.4c0-0.2-0.1-0.5-0.1-1
	c-0.3,0.5-1,1.2-2.3,1.2c-1.5,0-2.4-1-2.4-2.2C322.7,36.6,323.6,35.8,324.9,35.7L324.9,35.7z M327.4,36.7v-0.3l-2.2,0.3
	c-0.6,0.1-1,0.4-1,1.1c0,0.5,0.5,1,1.2,1C326.4,38.8,327.4,38.3,327.4,36.7z M333.6,32.6h1.6v1.3h-1.6v3.8c0,0.7,0.3,1,1,1
	c0.2,0,0.4,0,0.6-0.1v1.2c-0.1,0-0.5,0.1-1,0.1c-1.2,0-2-0.8-2-2.1v-4h-1.4v-1.3h0.4c0.8,0,1.1-0.5,1.1-1.1v-1.2h1.3V32.6z
	 M340.4,40c-1.7,0-2.7-1.3-2.7-2.9v-4.5h1.4v4.3c0,1,0.5,1.9,1.6,1.9s1.7-0.8,1.7-1.8v-4.3h1.4v5.9c0,0.6,0,1.1,0.1,1.3h-1.3
	c0-0.2-0.1-0.6-0.1-0.9C342.2,39.7,341.3,40,340.4,40z M351,34h-0.6c-1.2,0-2,0.6-2,2.2v3.6H347v-7.2h1.4v1.3
	c0.5-1.1,1.4-1.4,2.2-1.4h0.5V34L351,34z M359.5,37.7c-0.4,1.3-1.6,2.3-3.2,2.3c-1.9,0-3.6-1.4-3.6-3.9c0-2.3,1.6-3.8,3.5-3.8
	c2.2,0,3.5,1.5,3.5,3.8v0.5h-5.4c0,1.3,1,2.2,2.2,2.2s1.8-0.6,2-1.5L359.5,37.7z M358.1,35.4c0-1-0.7-1.8-2-1.8
	c-1.2,0-1.9,0.9-2,1.8H358.1z"/>
<path class="st2" d="M420.9,9.3h96.2v50h-96.2L420.9,9.3z"/>
<path class="st0" d="M443.4,39.8V29.2h6.5v1.4h-5V34h4.5v1.4h-4.5v4.5h-1.5V39.8z M458,37.7c-0.4,1.3-1.6,2.3-3.2,2.3
	c-1.9,0-3.6-1.4-3.6-3.9c0-2.3,1.6-3.8,3.5-3.8c2.2,0,3.5,1.5,3.5,3.8v0.5h-5.4c0,1.3,1,2.2,2.2,2.2s1.8-0.6,2-1.5L458,37.7z
	 M456.6,35.4c0-1-0.7-1.8-2-1.8c-1.2,0-1.9,0.9-2,1.8H456.6z M462.4,35.7l2-0.3c0.4-0.1,0.6-0.3,0.6-0.5c0-0.7-0.5-1.3-1.6-1.3
	c-1,0-1.5,0.6-1.6,1.5l-1.4-0.3c0.2-1.4,1.4-2.3,3-2.3c2.2,0,3,1.2,3,2.6v3.6c0,0.6,0.1,1,0.1,1.2H465c0-0.2-0.1-0.5-0.1-1
	c-0.3,0.5-1,1.2-2.3,1.2c-1.5,0-2.4-1-2.4-2.2C460.2,36.6,461.1,35.8,462.4,35.7L462.4,35.7z M464.9,36.7v-0.3l-2.2,0.3
	c-0.6,0.1-1.1,0.4-1.1,1.1c0,0.5,0.5,1,1.2,1C463.9,38.8,464.9,38.3,464.9,36.7z M471.1,32.6h1.6v1.3h-1.6v3.8c0,0.7,0.3,1,1,1
	c0.2,0,0.4,0,0.6-0.1v1.2c-0.1,0-0.5,0.1-1,0.1c-1.2,0-2-0.8-2-2.1v-4h-1.4v-1.3h0.4c0.8,0,1.1-0.5,1.1-1.1v-1.2h1.3V32.6z
	 M477.9,40c-1.7,0-2.7-1.3-2.7-2.9v-4.5h1.4v4.3c0,1,0.4,1.9,1.6,1.9c1.1,0,1.7-0.8,1.7-1.8v-4.3h1.4v5.9c0,0.6,0,1.1,0.1,1.3h-1.3
	c0-0.2-0.1-0.6-0.1-0.9C479.7,39.7,478.8,40,477.9,40z M488.5,34h-0.6c-1.2,0-2,0.6-2,2.2v3.6h-1.4v-7.2h1.4v1.3
	c0.5-1.1,1.4-1.4,2.2-1.4h0.5V34L488.5,34z M497,37.7c-0.4,1.3-1.6,2.3-3.2,2.3c-1.9,0-3.6-1.4-3.6-3.9c0-2.3,1.6-3.8,3.4-3.8
	c2.2,0,3.5,1.5,3.5,3.8v0.5h-5.4c0,1.3,1,2.2,2.2,2.2s1.8-0.6,2-1.5L497,37.7z M495.6,35.4c0-1-0.7-1.8-2-1.8c-1.2,0-1.9,0.9-2,1.8
	H495.6z"/>
<path class="st3" d="M424.2,340.2c0-17,13.8-30.8,30.8-30.8"/>
<path class="st3" d="M253.9,340.2c0-17-13.8-30.8-30.8-30.8 M164.3,432.5h213.9"/>
<circle class="st4" cx="315.6" cy="432.5" r="15.8"/>
<circle class="st4" cx="362.5" cy="432.5" r="15.8"/>
<circle class="st4" cx="242.2" cy="432.5" r="15.8"/>
<path class="st3" d="M776,309.5H179.6"/>
<circle class="st5" cx="485" cy="309.5" r="15.8"/>
<circle class="st5" cx="315.6" cy="309.5" r="15.8"/>
<circle class="st5" cx="776" cy="309.5" r="15.8"/>
<path class="st3" d="M253.9,340.2c0,17,13.8,30.8,30.8,30.8h107.9"/>
<circle class="st4" cx="315.6" cy="371" r="15.8"/>
<circle class="st4" cx="362.5" cy="371" r="15.8"/>
<path class="st3" d="M392.6,371h0.9c17,0,30.7-13.8,30.7-30.8"/>
<path class="st6" d="M70.6,309.5H21.1"/>
<path class="st7" d="M776,248"/>
<path class="st8" d="M761.1,248h-82.3"/>
<path class="st3" d="M84.7,278.7c0-17-13.8-30.8-30.8-30.8"/>
<circle class="st4" cx="148.5" cy="432.5" r="15.8"/>
<path class="st3" d="M644.8,248H39"/>
<ellipse transform="matrix(0.9999 -1.514629e-02 1.514629e-02 0.9999 -3.7536 0.3798)" class="st9" cx="23.2" cy="248" rx="15.8" ry="15.8"/>
<circle class="st9" cx="315.6" cy="248" r="15.8"/>
<circle class="st9" cx="644.8" cy="248" r="15.8"/>
<path class="st10" d="M48.8,142.5h42.5V180H48.8L48.8,142.5z"/>
<path class="st0" d="M62.4,165.7h-1.2l-2.5-6.3H60l1.8,4.8l1.8-4.8h1.3L62.4,165.7z M67,158.5c0.5-0.8,1.4-1.4,2.6-1.4
	s2,0.5,2.6,1.4c0.6,0.8,0.8,1.9,0.8,3.1s-0.2,2.2-0.8,3.1c-0.5,0.8-1.4,1.4-2.6,1.4s-2-0.5-2.6-1.4c-0.6-0.8-0.8-1.9-0.8-3.1
	S66.5,159.3,67,158.5z M68.3,164.2c0.3,0.3,0.7,0.5,1.3,0.5s1-0.2,1.3-0.5c0.5-0.5,0.7-1.4,0.7-2.7s-0.2-2.2-0.7-2.7
	c-0.3-0.3-0.7-0.5-1.3-0.5s-1,0.2-1.3,0.5c-0.5,0.5-0.7,1.4-0.7,2.7S67.8,163.7,68.3,164.2z M75.6,164c0.5,0,0.9,0.4,0.9,0.9
	s-0.4,0.9-0.9,0.9s-0.9-0.4-0.9-0.9S75,164,75.6,164z M79.5,165.7v-5.9h-2v-0.9c1.2,0,2-0.7,2.2-1.6h1.1v8.4
	C80.8,165.7,79.5,165.7,79.5,165.7z"/>
<path class="st11" d="M70.1,214.1v-17.6 M78.2,207.6l-8.1,8.1l-8.2-8.1"/>
<path class="st10" d="M294.3,142.5h42.5V180h-42.5V142.5z"/>
<path class="st0" d="M306.3,165.7H305l-2.5-6.3h1.4l1.8,4.8l1.8-4.8h1.3L306.3,165.7L306.3,165.7z M310.9,158.5
	c0.5-0.8,1.4-1.4,2.6-1.4s2,0.5,2.6,1.4c0.6,0.8,0.8,1.9,0.8,3.1s-0.2,2.2-0.8,3.1c-0.5,0.8-1.4,1.4-2.6,1.4s-2-0.5-2.6-1.4
	c-0.6-0.8-0.8-1.9-0.8-3.1S310.4,159.3,310.9,158.5z M312.2,164.2c0.3,0.3,0.7,0.5,1.3,0.5s1-0.2,1.3-0.5c0.5-0.5,0.7-1.4,0.7-2.7
	s-0.2-2.2-0.7-2.7c-0.3-0.3-0.7-0.5-1.3-0.5s-1,0.2-1.3,0.5c-0.5,0.5-0.7,1.4-0.7,2.7S311.7,163.7,312.2,164.2z M319.5,164
	c0.5,0,0.9,0.4,0.9,0.9s-0.4,0.9-0.9,0.9s-0.9-0.4-0.9-0.9S319,164,319.5,164z M322.5,160.2v-0.3c0-1.4,1.1-2.7,2.9-2.7
	s2.8,1.2,2.8,2.6c0,1.1-0.6,2-1.6,2.6l-1.7,1.1c-0.5,0.3-0.9,0.7-1,1.2h4.3v1.2h-5.9c0-1.4,0.6-2.4,2-3.4l1.4-0.9
	c0.8-0.5,1.2-1.1,1.2-1.8c0-0.8-0.5-1.5-1.6-1.5s-1.6,0.8-1.6,1.7v0.4L322.5,160.2L322.5,160.2z"/>
<path class="st11" d="M315.6,214.1v-17.6 M323.7,207.6l-8.1,8.1l-8.2-8.1"/>
<path class="st10" d="M623.5,142.5H666V180h-42.5V142.5z"/>
<path class="st0" d="M636.6,165.7h-1.2l-2.5-6.3h1.4l1.8,4.8l1.8-4.8h1.3L636.6,165.7z M642.2,165.7v-5.9h-2v-0.9
	c1.2,0,2-0.7,2.2-1.6h1.1v8.4H642.2z M646.8,164c0.5,0,0.9,0.4,0.9,0.9s-0.4,0.9-0.9,0.9s-0.9-0.4-0.9-0.9S646.3,164,646.8,164z
	 M650.4,158.5c0.5-0.8,1.4-1.4,2.6-1.4s2,0.5,2.6,1.4c0.6,0.8,0.8,1.9,0.8,3.1s-0.2,2.2-0.8,3.1c-0.5,0.8-1.4,1.4-2.6,1.4
	s-2-0.5-2.6-1.4c-0.6-0.8-0.8-1.9-0.8-3.1S649.8,159.3,650.4,158.5z M651.6,164.2c0.3,0.3,0.7,0.5,1.3,0.5s1-0.2,1.3-0.5
	c0.5-0.5,0.7-1.4,0.7-2.7s-0.2-2.2-0.7-2.7c-0.3-0.3-0.7-0.5-1.3-0.5s-1,0.2-1.3,0.5c-0.5,0.5-0.7,1.4-0.7,2.7
	S651.1,163.7,651.6,164.2z"/>
<path class="st11" d="M644.8,214.1v-17.6 M653,207.6l-8.2,8.1l-8.1-8.1"/>
<path class="st12" d="M246.7,371H20.9"/>
<path class="st7" d="M776,371"/>
<path class="st13" d="M762.2,371H424.8"/>
<path class="st7" d="M123.3,432.5"/>
<path class="st14" d="M109.6,432.5H20.9"/>
<path class="st7" d="M776,432.5"/>
<path class="st15" d="M762.1,432.5H393.6"/>
<path class="st3" d="M84.7,278.7c0,17,13.8,30.8,30.8,30.8h95.7"/>
<circle class="st5" cx="195.4" cy="309.5" r="15.7"/>
<circle class="st5" cx="148.5" cy="309.5" r="15.8"/>
<path class="st3" d="M148.5,325.2v91.5"/>
<g>
	<path class="st10" d="M7,9.3h96.2v50H7V9.3z"/>
	<g>
		<path class="st16" d="M39.9,40.4v-10h2l2.4,7.1c0.2,0.7,0.4,1.2,0.5,1.5c0.1-0.4,0.3-0.9,0.5-1.6l2.4-7h1.8v10h-1.3V32l-2.9,8.4
			h-1.2l-2.9-8.5v8.5H39.9z"/>
		<path class="st16" d="M56.9,39.5c-0.5,0.4-0.9,0.7-1.3,0.8c-0.4,0.2-0.9,0.2-1.4,0.2c-0.8,0-1.4-0.2-1.8-0.6s-0.6-0.9-0.6-1.5
			c0-0.4,0.1-0.7,0.2-1c0.2-0.3,0.4-0.5,0.6-0.7c0.3-0.2,0.6-0.3,0.9-0.4c0.2-0.1,0.6-0.1,1.1-0.2c1-0.1,1.7-0.3,2.2-0.4
			c0-0.2,0-0.3,0-0.3c0-0.5-0.1-0.9-0.3-1.1c-0.3-0.3-0.8-0.4-1.4-0.4s-1,0.1-1.3,0.3c-0.3,0.2-0.5,0.6-0.6,1.1L52,35.1
			c0.1-0.5,0.3-0.9,0.5-1.2c0.3-0.3,0.6-0.6,1.1-0.7c0.5-0.2,1-0.3,1.6-0.3s1.1,0.1,1.5,0.2s0.7,0.3,0.9,0.6
			c0.2,0.2,0.3,0.5,0.4,0.8c0,0.2,0.1,0.6,0.1,1.1v1.6c0,1.1,0,1.9,0.1,2.2c0.1,0.3,0.2,0.6,0.3,0.9h-1.3
			C57,40.2,56.9,39.9,56.9,39.5z M56.8,36.8c-0.4,0.2-1.1,0.3-2,0.5c-0.5,0.1-0.9,0.2-1.1,0.2s-0.4,0.2-0.5,0.4S53,38.3,53,38.5
			c0,0.3,0.1,0.6,0.4,0.8c0.2,0.2,0.6,0.3,1.1,0.3s0.9-0.1,1.3-0.3c0.4-0.2,0.6-0.5,0.8-0.9c0.1-0.3,0.2-0.7,0.2-1.2L56.8,36.8
			L56.8,36.8z"/>
		<path class="st16" d="M60.6,31.8v-1.4h1.2v1.4H60.6z M60.6,40.4v-7.3h1.2v7.3H60.6z"/>
		<path class="st16" d="M64.4,40.4v-7.3h1.1v1c0.5-0.8,1.3-1.2,2.3-1.2c0.4,0,0.8,0.1,1.2,0.2c0.4,0.2,0.6,0.4,0.8,0.6
			c0.2,0.2,0.3,0.6,0.4,0.9c0,0.2,0.1,0.6,0.1,1.2v4.5h-1.2v-4.4c0-0.5,0-0.9-0.1-1.1s-0.3-0.4-0.5-0.6C68.3,34.1,68,34,67.6,34
			c-0.5,0-1,0.2-1.4,0.5s-0.6,1-0.6,1.9v4H64.4z"/>
	</g>
</g>
</svg>
