<svg xmlns="http://www.w3.org/2000/svg" xmlns:xlink="http://www.w3.org/1999/xlink" contentStyleType="text/css" height="485px" preserveAspectRatio="none" style="width:1121px;height:485px;" version="1.1" viewBox="0 0 1121 485" width="1121px" zoomAndPan="magnify"><defs/><g><!--cluster 1--><g id="cluster_1"><rect fill="none" height="216" rx="2.5" ry="2.5" style="stroke:#181818;stroke-width:1.0;stroke-dasharray:1.0,3.0;" width="706.91" x="408.16" y="7"/><text fill="#000000" font-family="sans-serif" font-size="14" font-weight="bold" lengthAdjust="spacing" textLength="4.874" x="759.178" y="21.9951">&#160;</text></g><!--cluster V1--><g id="cluster_V1"><rect fill="none" height="109" rx="2.5" ry="2.5" style="stroke:#181818;stroke-width:1.0;" width="288.02" x="448.16" y="74"/><text fill="#000000" font-family="sans-serif" font-size="14" font-weight="bold" lengthAdjust="spacing" textLength="33.9268" x="575.2066" y="88.9951">v1.0</text></g><!--cluster V2S--><g id="cluster_V2S"><rect fill="none" height="109" rx="2.5" ry="2.5" style="stroke:#181818;stroke-width:1.0;" width="289.26" x="785.81" y="74"/><text fill="#000000" font-family="sans-serif" font-size="14" font-weight="bold" lengthAdjust="spacing" textLength="115.2061" x="872.837" y="88.9951">v2.0 (standby)</text></g><!--cluster 2--><g id="cluster_2"><rect fill="none" height="216" rx="2.5" ry="2.5" style="stroke:#181818;stroke-width:1.0;stroke-dasharray:1.0,3.0;" width="706.91" x="407.54" y="263"/><text fill="#000000" font-family="sans-serif" font-size="14" font-weight="bold" lengthAdjust="spacing" textLength="4.874" x="758.558" y="277.9951">&#160;</text></g><!--cluster V2--><g id="cluster_V2"><rect fill="none" height="109" rx="2.5" ry="2.5" style="stroke:#181818;stroke-width:1.0;" width="289.27" x="447.54" y="330"/><text fill="#000000" font-family="sans-serif" font-size="14" font-weight="bold" lengthAdjust="spacing" textLength="33.9268" x="575.2116" y="344.9951">v2.0</text></g><!--cluster V1S--><g id="cluster_V1S"><rect fill="none" height="109" rx="2.5" ry="2.5" style="stroke:#181818;stroke-width:1.0;" width="288.02" x="786.43" y="330"/><text fill="#000000" font-family="sans-serif" font-size="14" font-weight="bold" lengthAdjust="spacing" textLength="115.2061" x="872.837" y="344.9951">v1.0 (standby)</text></g><!--entity V1B1--><g id="elem_V1B1"><rect fill="#6495ED" height="22.2969" rx="2.5" ry="2.5" style="stroke:#181818;stroke-width:0.5;" width="38.5117" x="472.16" y="136.85"/><text fill="#000000" font-family="sans-serif" font-size="14" lengthAdjust="spacing" textLength="18.5117" x="482.16" y="152.8451">B1</text></g><!--entity V1B2--><g id="elem_V1B2"><rect fill="#6495ED" height="22.2969" rx="2.5" ry="2.5" style="stroke:#181818;stroke-width:0.5;" width="38.5117" x="572.92" y="136.85"/><text fill="#000000" font-family="sans-serif" font-size="14" lengthAdjust="spacing" textLength="18.5117" x="582.92" y="152.8451">B2</text></g><!--entity V1B3--><g id="elem_V1B3"><rect fill="#6495ED" height="22.2969" rx="2.5" ry="2.5" style="stroke:#181818;stroke-width:0.5;" width="38.5117" x="673.67" y="136.85"/><text fill="#000000" font-family="sans-serif" font-size="14" lengthAdjust="spacing" textLength="18.5117" x="683.67" y="152.8451">B3</text></g><!--entity V2SG1--><g id="elem_V2SG1"><rect fill="#90EE90" height="22.2969" rx="2.5" ry="2.5" style="stroke:#181818;stroke-width:0.5;" width="39.7559" x="809.81" y="136.85"/><text fill="#000000" font-family="sans-serif" font-size="14" lengthAdjust="spacing" textLength="19.7559" x="819.81" y="152.8451">G1</text></g><!--entity V2SG2--><g id="elem_V2SG2"><rect fill="#90EE90" height="22.2969" rx="2.5" ry="2.5" style="stroke:#181818;stroke-width:0.5;" width="39.7559" x="910.56" y="136.85"/><text fill="#000000" font-family="sans-serif" font-size="14" lengthAdjust="spacing" textLength="19.7559" x="920.56" y="152.8451">G2</text></g><!--entity V2SG3--><g id="elem_V2SG3"><rect fill="#90EE90" height="22.2969" rx="2.5" ry="2.5" style="stroke:#181818;stroke-width:0.5;" width="39.7559" x="1011.32" y="136.85"/><text fill="#000000" font-family="sans-serif" font-size="14" lengthAdjust="spacing" textLength="19.7559" x="1021.32" y="152.8451">G3</text></g><!--entity V2G1--><g id="elem_V2G1"><rect fill="#90EE90" height="22.2969" rx="2.5" ry="2.5" style="stroke:#181818;stroke-width:0.5;" width="39.7559" x="471.54" y="392.85"/><text fill="#000000" font-family="sans-serif" font-size="14" lengthAdjust="spacing" textLength="19.7559" x="481.54" y="408.8451">G1</text></g><!--entity V2G2--><g id="elem_V2G2"><rect fill="#90EE90" height="22.2969" rx="2.5" ry="2.5" style="stroke:#181818;stroke-width:0.5;" width="39.7559" x="572.29" y="392.85"/><text fill="#000000" font-family="sans-serif" font-size="14" lengthAdjust="spacing" textLength="19.7559" x="582.29" y="408.8451">G2</text></g><!--entity V2G3--><g id="elem_V2G3"><rect fill="#90EE90" height="22.2969" rx="2.5" ry="2.5" style="stroke:#181818;stroke-width:0.5;" width="39.7559" x="673.05" y="392.85"/><text fill="#000000" font-family="sans-serif" font-size="14" lengthAdjust="spacing" textLength="19.7559" x="683.05" y="408.8451">G3</text></g><!--entity V1SB1--><g id="elem_V1SB1"><rect fill="#6495ED" height="22.2969" rx="2.5" ry="2.5" style="stroke:#181818;stroke-width:0.5;" width="38.5117" x="810.43" y="392.85"/><text fill="#000000" font-family="sans-serif" font-size="14" lengthAdjust="spacing" textLength="18.5117" x="820.43" y="408.8451">B1</text></g><!--entity V1SB2--><g id="elem_V1SB2"><rect fill="#6495ED" height="22.2969" rx="2.5" ry="2.5" style="stroke:#181818;stroke-width:0.5;" width="38.5117" x="911.18" y="392.85"/><text fill="#000000" font-family="sans-serif" font-size="14" lengthAdjust="spacing" textLength="18.5117" x="921.18" y="408.8451">B2</text></g><!--entity V1SB3--><g id="elem_V1SB3"><rect fill="#6495ED" height="22.2969" rx="2.5" ry="2.5" style="stroke:#181818;stroke-width:0.5;" width="38.5117" x="1011.94" y="392.85"/><text fill="#000000" font-family="sans-serif" font-size="14" lengthAdjust="spacing" textLength="18.5117" x="1021.94" y="408.8451">B3</text></g><!--entity Users--><g id="elem_Users"><ellipse cx="25.6021" cy="133.35" fill="#F1F1F1" rx="8" ry="8" style="stroke:#181818;stroke-width:0.5;"/><path d="M25.6021,141.35 L25.6021,168.35 M12.6021,149.35 L38.6021,149.35 M25.6021,168.35 L12.6021,183.35 M25.6021,168.35 L38.6021,183.35 " fill="none" style="stroke:#181818;stroke-width:0.5;"/><text fill="#000000" font-family="sans-serif" font-size="14" lengthAdjust="spacing" textLength="39.2041" x="6" y="197.8451">Users</text></g><!--entity Proxy--><g id="elem_Proxy"><rect fill="#F1F1F1" height="36.2969" rx="2.5" ry="2.5" style="stroke:#181818;stroke-width:0.5;" width="59.334" x="106.2" y="144.85"/><text fill="#000000" font-family="sans-serif" font-size="14" lengthAdjust="spacing" textLength="39.334" x="116.2" y="167.8451">Proxy</text></g><!--link V1B1 to V1B2--><!--link V1B2 to V1B3--><!--link V2SG1 to V2SG2--><!--link V2SG2 to V2SG3--><!--link V1 to V2S--><!--link V2G1 to V2G2--><!--link V2G2 to V2G3--><!--link V1SB1 to V1SB2--><!--link V1SB2 to V1SB3--><!--link V2 to V1S--><!--link Users to Proxy--><g id="link_Users_Proxy"><path d="M45.46,163 C62.18,163 80.86,163 100.05,163 " fill="none" id="Users-to-Proxy" style="stroke:#181818;stroke-width:1.0;"/><polygon fill="#181818" points="106.05,163,97.05,159,101.05,163,97.05,167,106.05,163" style="stroke:#181818;stroke-width:1.0;"/></g><!--link Proxy to 1--><g id="link_Proxy_1"><path d="M165.72,151.46 C212.75,132.78 308.98,95.06 391.54,66 C396.8162,64.1425 396.582,64.1914 402.0833,62.3271 " fill="none" id="Proxy-to-1" style="stroke:#181818;stroke-width:1.0;"/><polygon fill="#181818" points="407.7658,60.4013,397.9581,59.5016,403.0304,62.0061,400.5258,67.0783,407.7658,60.4013" style="stroke:#181818;stroke-width:1.0;"/><text fill="#000000" font-family="sans-serif" font-size="13" lengthAdjust="spacing" textLength="124.0142" x="227.54" y="77.0669">before deployment</text></g><!--link Proxy to 2--><g id="link_Proxy_2"><path d="M165.8,173.39 C207.69,188.44 287.9075,217.2575 358.115,242.4775 C375.6669,248.7825 392.5931,254.8627 408.1385,260.4466 C410.0816,261.1446 406.3565,259.8065 408.255,260.4885 " fill="none" id="Proxy-to-2" style="stroke:#181818;stroke-width:1.0;"/><polygon fill="#181818" points="413.9018,262.5168,406.7839,255.7098,409.1961,260.8266,404.0794,263.2388,413.9018,262.5168" style="stroke:#181818;stroke-width:1.0;"/><text fill="#000000" font-family="sans-serif" font-size="13" lengthAdjust="spacing" textLength="112.874" x="233.54" y="192.0669">after deployment</text></g><!--SRC=[ZPInReCm48PtFyMfMTeXKMos3XtI8Kk7IbQxH0mEFWWAiIFZj8sYl7jj82qOac0aW-y-OTr_lwxSvcelZDZ1MYJRpEY3aeakj05hX2fT2fKbfC3KWjLWycnZGUO64vjhHOX8h6C_IZGb4PbZuTtedoCXdX0gAn0Ut2DAe30fSeKpgQr52ITmY_YjHNxHsRo2FocSggHVYJ0I5hIEk_VaLHkL5leRpQ8uOC2nXcDtkAZXeXxt1wxyTJ5CLvjSIbJnzAKAiRX3i3uHrSIPz0faipaybkueryUdkbJ6mrgNj4cuZycRbtnf45K0iGl4Ra3H1OewKAi0VqjOWVzft6NO0DCjq_Li-eyunY7aFE045ZXXIAH6cclAZ15cZ2utP1bG9H1bG9FbzSxJVkSfl-PoFjRcVApF-HsZym6dyy3gVC3hF31xumKMUe5MNgW61VX0FIQgtPrTWC8ph37L1a7Ylj37dPyyBO0vGAGMJIl_2m00]--></g></svg>