<svg xmlns="http://www.w3.org/2000/svg" xmlns:xlink="http://www.w3.org/1999/xlink" contentStyleType="text/css" height="346px" preserveAspectRatio="none" style="width:654px;height:346px;" version="1.1" viewBox="0 0 654 346" width="654px" zoomAndPan="magnify"><defs/><g><!--cluster V1--><g id="cluster_V1"><rect fill="none" height="109" rx="2.5" ry="2.5" style="stroke:#181818;stroke-width:1.0;" width="320.78" x="295.54" y="7"/><text fill="#000000" font-family="sans-serif" font-size="14" font-weight="bold" lengthAdjust="spacing" textLength="33.9268" x="438.9666" y="21.9951">v1.0</text></g><!--cluster V2--><g id="cluster_V2"><rect fill="none" height="192" rx="2.5" ry="2.5" style="stroke:#181818;stroke-width:1.0;" width="345.4" x="302.92" y="148"/><text fill="#000000" font-family="sans-serif" font-size="14" font-weight="bold" lengthAdjust="spacing" textLength="82.7148" x="434.2626" y="162.9951">v1.0 / v2.0</text></g><!--cluster O1--><g id="cluster_O1"><rect fill="none" height="109" rx="2.5" ry="2.5" style="stroke:#181818;stroke-width:1.0;stroke-dasharray:1.0,3.0;" width="186.03" x="430.29" y="199"/><text fill="#000000" font-family="sans-serif" font-size="14" font-weight="bold" lengthAdjust="spacing" textLength="4.874" x="520.868" y="213.9951">&#160;</text></g><!--entity B1--><g id="elem_B1"><rect fill="#6495ED" height="22.2969" rx="2.5" ry="2.5" style="stroke:#181818;stroke-width:0.5;" width="38.5117" x="319.54" y="69.85"/><text fill="#000000" font-family="sans-serif" font-size="14" lengthAdjust="spacing" textLength="18.5117" x="329.54" y="85.8451">B1</text></g><!--entity B2--><g id="elem_B2"><rect fill="#6495ED" height="22.2969" rx="2.5" ry="2.5" style="stroke:#181818;stroke-width:0.5;" width="38.5117" x="454.29" y="69.85"/><text fill="#000000" font-family="sans-serif" font-size="14" lengthAdjust="spacing" textLength="18.5117" x="464.29" y="85.8451">B2</text></g><!--entity B3--><g id="elem_B3"><rect fill="#6495ED" height="22.2969" rx="2.5" ry="2.5" style="stroke:#181818;stroke-width:0.5;" width="38.5117" x="553.81" y="69.85"/><text fill="#000000" font-family="sans-serif" font-size="14" lengthAdjust="spacing" textLength="18.5117" x="563.81" y="85.8451">B3</text></g><!--entity G1--><g id="elem_G1"><rect fill="#90EE90" height="22.2969" rx="2.5" ry="2.5" style="stroke:#181818;stroke-width:0.5;" width="39.7559" x="318.92" y="225.85"/><text fill="#000000" font-family="sans-serif" font-size="14" lengthAdjust="spacing" textLength="19.7559" x="328.92" y="241.8451">G1</text></g><!--entity G2--><g id="elem_G2"><rect fill="#6495ED" height="22.2969" rx="2.5" ry="2.5" style="stroke:#181818;stroke-width:0.5;" width="38.5117" x="454.29" y="241.85"/><text fill="#000000" font-family="sans-serif" font-size="14" lengthAdjust="spacing" textLength="18.5117" x="464.29" y="257.8451">B2</text></g><!--entity G3--><g id="elem_G3"><rect fill="#6495ED" height="22.2969" rx="2.5" ry="2.5" style="stroke:#181818;stroke-width:0.5;" width="38.5117" x="553.81" y="241.85"/><text fill="#000000" font-family="sans-serif" font-size="14" lengthAdjust="spacing" textLength="18.5117" x="563.81" y="257.8451">B3</text></g><!--entity Users--><g id="elem_Users"><ellipse cx="25.6021" cy="207.35" fill="#F1F1F1" rx="8" ry="8" style="stroke:#181818;stroke-width:0.5;"/><path d="M25.6021,215.35 L25.6021,242.35 M12.6021,223.35 L38.6021,223.35 M25.6021,242.35 L12.6021,257.35 M25.6021,242.35 L38.6021,257.35 " fill="none" style="stroke:#181818;stroke-width:0.5;"/><text fill="#000000" font-family="sans-serif" font-size="14" lengthAdjust="spacing" textLength="39.2041" x="6" y="271.8451">Users</text></g><!--entity Proxy--><g id="elem_Proxy"><rect fill="#F1F1F1" height="36.2969" rx="2.5" ry="2.5" style="stroke:#181818;stroke-width:0.5;" width="59.334" x="106.2" y="218.85"/><text fill="#000000" font-family="sans-serif" font-size="14" lengthAdjust="spacing" textLength="39.334" x="116.2" y="241.8451">Proxy</text></g><!--link B1 to B2--><!--link B2 to B3--><!--link G1 to G2--><!--link G2 to G3--><!--link Users to Proxy--><g id="link_Users_Proxy"><path d="M45.46,237 C62.18,237 80.86,237 100.05,237 " fill="none" id="Users-to-Proxy" style="stroke:#181818;stroke-width:1.0;"/><polygon fill="#181818" points="106.05,237,97.05,233,101.05,237,97.05,241,106.05,237" style="stroke:#181818;stroke-width:1.0;"/></g><!--link Proxy to V1--><g id="link_Proxy_V1"><path d="M146.42,218.55 C166.28,181.92 215.59,99.62 279.54,54 C282.2388,52.075 285.1381,50.323 288.15,48.7302 C289.6559,47.9339 291.1899,47.1773 292.741,46.4589 C293.5166,46.0997 294.2964,45.75 295.0792,45.4096 C295.177,45.3671 289.7659,47.7018 289.8638,47.6595 " fill="none" id="Proxy-to-V1" style="stroke:#181818;stroke-width:1.0;"/><polygon fill="#181818" points="295.3728,45.2824,285.5246,45.1754,290.782,47.2633,288.694,52.5207,295.3728,45.2824" style="stroke:#181818;stroke-width:1.0;"/></g><!--link Proxy to G1--><g id="link_Proxy_G1"><path d="M165.66,237 C207.22,237 276.92,237 312.43,237 " fill="none" id="Proxy-to-G1" style="stroke:#181818;stroke-width:1.0;"/><polygon fill="#181818" points="318.43,237,309.43,233,313.43,237,309.43,241,318.43,237" style="stroke:#181818;stroke-width:1.0;"/><text fill="#000000" font-family="sans-serif" font-size="13" lengthAdjust="spacing" textLength="74.6484" x="196.54" y="233.0669">some users</text></g><!--link Proxy to O1--><g id="link_Proxy_O1"><path d="M164.92,255.59 C192.68,272.79 237.08,297.14 279.54,307 C320.695,316.55 368.095,315.0025 405.6225,310.9688 C410.3134,310.4645 414.8501,309.9215 419.2011,309.3564 C421.3765,309.0738 423.5056,308.7858 425.5842,308.4943 C426.6236,308.3486 427.6503,308.202 428.664,308.0548 C429.1708,307.9812 423.7387,308.7838 424.2389,308.7099 " fill="none" id="Proxy-to-O1" style="stroke:#181818;stroke-width:1.0;"/><polygon fill="#181818" points="430.1746,307.8337,420.6869,305.1909,425.2282,308.5639,421.8552,313.1052,430.1746,307.8337" style="stroke:#181818;stroke-width:1.0;"/><text fill="#000000" font-family="sans-serif" font-size="13" lengthAdjust="spacing" textLength="71.7476" x="303.29" y="303.0669">most users</text></g><!--SRC=[VP6nJiCm48PtFyMfp2aasHWOmk05gInqgJ8O-vfQTMnqTWe8zTrnd5HOQOK7IxxlF_a-dJzg-o58zF0kvB4ZDrWbdN44WOJr4Q4DZ1dS1mWEI7U704eJog2TPKp84BDl7iapqSKil9Bx-cPiJ0ZR6OJLgLm_h41us9Rmmo0UAKX1KyBTioExD-uJgJ43PgpwXzLNBC5TKxPGx0vQARHjyHGBLJkJQadgbfslXeHxE5MNMQjyLXvdVHdTEI7QwR-i6LBB9eQCjhXMBWHKSt_k54FyjbbkDwRgcwdpRCgNflnYofUcV39bQKLGnDAqe7IdzxRC7b7q4Rph4OQqqp-o6KdlV9Z8Bm00]--></g></svg>