<svg xmlns="http://www.w3.org/2000/svg" xmlns:xlink="http://www.w3.org/1999/xlink" contentStyleType="text/css" height="100px" preserveAspectRatio="none" style="width:293px;height:100px;" version="1.1" viewBox="0 0 293 100" width="293px" zoomAndPan="magnify"><defs/><g><!--cluster Continuous Integration--><g id="cluster_Continuous Integration"><rect fill="none" height="87.3" rx="2.5" ry="2.5" style="stroke:#181818;stroke-width:1.0;" width="280" x="7" y="7"/><text fill="#000000" font-family="sans-serif" font-size="14" font-weight="bold" lengthAdjust="spacing" textLength="182.8887" x="55.5557" y="21.9951">Continuous Integration</text></g><!--entity Build--><g id="elem_Build"><rect fill="#F1F1F1" height="36.2969" rx="2.5" ry="2.5" style="stroke:#181818;stroke-width:0.5;" width="55.1436" x="23.43" y="42"/><text fill="#000000" font-family="sans-serif" font-size="14" lengthAdjust="spacing" textLength="35.1436" x="33.43" y="64.9951">Build</text></g><!--entity Test--><g id="elem_Test"><rect fill="#F1F1F1" height="36.2969" rx="2.5" ry="2.5" style="stroke:#181818;stroke-width:0.5;" width="49.9482" x="114.03" y="42"/><text fill="#000000" font-family="sans-serif" font-size="14" lengthAdjust="spacing" textLength="29.9482" x="124.03" y="64.9951">Test</text></g><!--entity Artifact--><g id="elem_Artifact"><rect fill="#F1F1F1" height="36.2969" rx="2.5" ry="2.5" style="stroke:#181818;stroke-width:0.5;" width="71.4063" x="199.3" y="42"/><text fill="#000000" font-family="sans-serif" font-size="14" lengthAdjust="spacing" textLength="51.4063" x="209.3" y="64.9951">Artifact</text></g><!--link Build to Test--><g id="link_Build_Test"><path d="M78.84,60.15 C90.44,60.15 96.03,60.15 107.62,60.15 " fill="none" id="Build-to-Test" style="stroke:#181818;stroke-width:1.0;"/><polygon fill="#181818" points="113.62,60.15,104.62,56.15,108.62,60.15,104.62,64.15,113.62,60.15" style="stroke:#181818;stroke-width:1.0;"/></g><!--link Test to Artifact--><g id="link_Test_Artifact"><path d="M164.12,60.15 C175.75,60.15 181.38,60.15 193.01,60.15 " fill="none" id="Test-to-Artifact" style="stroke:#181818;stroke-width:1.0;"/><polygon fill="#181818" points="199.01,60.15,190.01,56.15,194.01,60.15,190.01,64.15,199.01,60.15" style="stroke:#181818;stroke-width:1.0;"/></g><!--SRC=[JOmz3i8m38LdSWghUw-019tOUm6JciXgi2l7cH1t9-b0w-dzV7vbPTdGy0rFZ6iohR94pMhWXb9QHU8X64L7IPbWc5ISfMejy12dPEYiCi3d4g0TflO0zyfvEVcPYf_ipPnV6DjmptOOnkj1TT63F_Vz0G00]--></g></svg>