<svg xmlns="http://www.w3.org/2000/svg" xmlns:xlink="http://www.w3.org/1999/xlink" contentStyleType="text/css" height="378px" preserveAspectRatio="none" style="width:1539px;height:378px;" version="1.1" viewBox="0 0 1539 378" width="1539px" zoomAndPan="magnify"><defs/><g><!--cluster V1--><g id="cluster_V1"><rect fill="none" height="109" rx="2.5" ry="2.5" style="stroke:#181818;stroke-width:1.0;" width="323.4" x="713.93" y="7"/><text fill="#000000" font-family="sans-serif" font-size="14" font-weight="bold" lengthAdjust="spacing" textLength="33.9268" x="858.6666" y="21.9951">v1.0</text></g><!--cluster V2--><g id="cluster_V2"><rect fill="none" height="216" rx="2.5" ry="2.5" style="stroke:#181818;stroke-width:1.0;" width="1120.57" x="412.54" y="156"/><text fill="#000000" font-family="sans-serif" font-size="14" font-weight="bold" lengthAdjust="spacing" textLength="33.9268" x="955.8616" y="170.9951">v2.0</text></g><!--cluster V2B1--><g id="cluster_V2B1"><rect fill="none" height="109" rx="2.5" ry="2.5" style="stroke:#181818;stroke-width:1.0;" width="347.9" x="452.54" y="223"/><text fill="#000000" font-family="sans-serif" font-size="14" font-weight="bold" lengthAdjust="spacing" textLength="4.874" x="624.053" y="237.9951">&#160;</text></g><!--cluster V2B2--><g id="cluster_V2B2"><rect fill="none" height="109" rx="2.5" ry="2.5" style="stroke:#181818;stroke-width:1.0;" width="305.4" x="849.44" y="223"/><text fill="#000000" font-family="sans-serif" font-size="14" font-weight="bold" lengthAdjust="spacing" textLength="4.874" x="999.703" y="237.9951">&#160;</text></g><!--cluster V2B3--><g id="cluster_V2B3"><rect fill="none" height="109" rx="2.5" ry="2.5" style="stroke:#181818;stroke-width:1.0;" width="289.27" x="1203.84" y="223"/><text fill="#000000" font-family="sans-serif" font-size="14" font-weight="bold" lengthAdjust="spacing" textLength="4.874" x="1346.038" y="237.9951">&#160;</text></g><!--entity B1--><g id="elem_B1"><rect fill="#6495ED" height="22.2969" rx="2.5" ry="2.5" style="stroke:#181818;stroke-width:0.5;" width="38.5117" x="737.93" y="69.85"/><text fill="#000000" font-family="sans-serif" font-size="14" lengthAdjust="spacing" textLength="18.5117" x="747.93" y="85.8451">B1</text></g><!--entity B2--><g id="elem_B2"><rect fill="#6495ED" height="22.2969" rx="2.5" ry="2.5" style="stroke:#181818;stroke-width:0.5;" width="38.5117" x="874.06" y="69.85"/><text fill="#000000" font-family="sans-serif" font-size="14" lengthAdjust="spacing" textLength="18.5117" x="884.06" y="85.8451">B2</text></g><!--entity B3--><g id="elem_B3"><rect fill="#6495ED" height="22.2969" rx="2.5" ry="2.5" style="stroke:#181818;stroke-width:0.5;" width="38.5117" x="974.82" y="69.85"/><text fill="#000000" font-family="sans-serif" font-size="14" lengthAdjust="spacing" textLength="18.5117" x="984.82" y="85.8451">B3</text></g><!--entity 1G1--><g id="elem_1G1"><rect fill="#90EE90" height="22.2969" rx="2.5" ry="2.5" style="stroke:#181818;stroke-width:0.5;" width="39.7559" x="476.54" y="285.85"/><text fill="#000000" font-family="sans-serif" font-size="14" lengthAdjust="spacing" textLength="19.7559" x="486.54" y="301.8451">G1</text></g><!--entity 1B2--><g id="elem_1B2"><rect fill="#6495ED" height="22.2969" rx="2.5" ry="2.5" style="stroke:#181818;stroke-width:0.5;" width="38.5117" x="620.42" y="285.85"/><text fill="#000000" font-family="sans-serif" font-size="14" lengthAdjust="spacing" textLength="18.5117" x="630.42" y="301.8451">B2</text></g><!--entity 1B3--><g id="elem_1B3"><rect fill="#6495ED" height="22.2969" rx="2.5" ry="2.5" style="stroke:#181818;stroke-width:0.5;" width="38.5117" x="737.93" y="285.85"/><text fill="#000000" font-family="sans-serif" font-size="14" lengthAdjust="spacing" textLength="18.5117" x="747.93" y="301.8451">B3</text></g><!--entity 2G1--><g id="elem_2G1"><rect fill="#90EE90" height="22.2969" rx="2.5" ry="2.5" style="stroke:#181818;stroke-width:0.5;" width="39.7559" x="873.44" y="285.85"/><text fill="#000000" font-family="sans-serif" font-size="14" lengthAdjust="spacing" textLength="19.7559" x="883.44" y="301.8451">G1</text></g><!--entity 2G2--><g id="elem_2G2"><rect fill="#90EE90" height="22.2969" rx="2.5" ry="2.5" style="stroke:#181818;stroke-width:0.5;" width="39.7559" x="974.2" y="285.85"/><text fill="#000000" font-family="sans-serif" font-size="14" lengthAdjust="spacing" textLength="19.7559" x="984.2" y="301.8451">G2</text></g><!--entity 2B3--><g id="elem_2B3"><rect fill="#6495ED" height="22.2969" rx="2.5" ry="2.5" style="stroke:#181818;stroke-width:0.5;" width="38.5117" x="1092.33" y="285.85"/><text fill="#000000" font-family="sans-serif" font-size="14" lengthAdjust="spacing" textLength="18.5117" x="1102.33" y="301.8451">B3</text></g><!--entity 3G1--><g id="elem_3G1"><rect fill="#90EE90" height="22.2969" rx="2.5" ry="2.5" style="stroke:#181818;stroke-width:0.5;" width="39.7559" x="1227.84" y="285.85"/><text fill="#000000" font-family="sans-serif" font-size="14" lengthAdjust="spacing" textLength="19.7559" x="1237.84" y="301.8451">G1</text></g><!--entity 3G2--><g id="elem_3G2"><rect fill="#90EE90" height="22.2969" rx="2.5" ry="2.5" style="stroke:#181818;stroke-width:0.5;" width="39.7559" x="1328.6" y="285.85"/><text fill="#000000" font-family="sans-serif" font-size="14" lengthAdjust="spacing" textLength="19.7559" x="1338.6" y="301.8451">G2</text></g><!--entity 3G3--><g id="elem_3G3"><rect fill="#90EE90" height="22.2969" rx="2.5" ry="2.5" style="stroke:#181818;stroke-width:0.5;" width="39.7559" x="1429.35" y="285.85"/><text fill="#000000" font-family="sans-serif" font-size="14" lengthAdjust="spacing" textLength="19.7559" x="1439.35" y="301.8451">G3</text></g><!--entity Users--><g id="elem_Users"><ellipse cx="25.6021" cy="94.35" fill="#F1F1F1" rx="8" ry="8" style="stroke:#181818;stroke-width:0.5;"/><path d="M25.6021,102.35 L25.6021,129.35 M12.6021,110.35 L38.6021,110.35 M25.6021,129.35 L12.6021,144.35 M25.6021,129.35 L38.6021,144.35 " fill="none" style="stroke:#181818;stroke-width:0.5;"/><text fill="#000000" font-family="sans-serif" font-size="14" lengthAdjust="spacing" textLength="39.2041" x="6" y="158.8451">Users</text></g><!--entity Proxy--><g id="elem_Proxy"><rect fill="#F1F1F1" height="36.2969" rx="2.5" ry="2.5" style="stroke:#181818;stroke-width:0.5;" width="59.334" x="106.2" y="105.85"/><text fill="#000000" font-family="sans-serif" font-size="14" lengthAdjust="spacing" textLength="39.334" x="116.2" y="128.8451">Proxy</text></g><!--link B1 to B2--><!--link B2 to B3--><!--link 1G1 to 1B2--><!--link 1B2 to 1B3--><!--link 2G1 to 2G2--><!--link 2G2 to 2B3--><!--link 3G1 to 3G2--><!--link 3G2 to 3G3--><!--link V2B1 to V2B2--><g id="link_V2B1_V2B2"><path d="M801.2154,250 C801.8669,250 802.5161,250 803.1631,250 C804.457,250 805.742,250 807.0177,250 C809.5689,250 812.0829,250 814.5565,250 C819.5038,250 824.2902,250 828.8925,250 C833.4948,250 837.9132,250 842.1246,250 C844.2303,250 846.2842,250 848.2835,250 C848.5335,250 848.7825,250 849.0307,250 C849.1548,250 843.2787,250 843.4024,250 " fill="none" id="V2B1-to-V2B2" style="stroke:#181818;stroke-width:1.0;"/><polygon fill="#181818" points="849.4024,250,840.4024,246,844.4024,250,840.4024,254,849.4024,250" style="stroke:#181818;stroke-width:1.0;"/></g><!--link V2B2 to V2B3--><g id="link_V2B2_V2B3"><path d="M1156.5595,250 C1158.9594,250 1161.331,250 1163.6718,250 C1173.0352,250 1181.9059,250 1190.12,250 C1194.227,250 1198.1699,250 1201.928,250 C1202.3978,250 1202.8647,250 1203.3286,250 C1203.4446,250 1197.5604,250 1197.6761,250 " fill="none" id="V2B2-to-V2B3" style="stroke:#181818;stroke-width:1.0;"/><polygon fill="#181818" points="1203.6761,250,1194.6761,246,1198.6761,250,1194.6761,254,1203.6761,250" style="stroke:#181818;stroke-width:1.0;"/></g><!--link Users to Proxy--><g id="link_Users_Proxy"><path d="M45.46,124 C62.18,124 80.86,124 100.05,124 " fill="none" id="Users-to-Proxy" style="stroke:#181818;stroke-width:1.0;"/><polygon fill="#181818" points="106.05,124,97.05,120,101.05,124,97.05,128,106.05,124" style="stroke:#181818;stroke-width:1.0;"/></g><!--link Proxy to V1--><g id="link_Proxy_V1"><path d="M165.78,105.97 C195.89,88.94 245,66 291.04,66 C291.04,66 291.04,66 640.67,66 C653.78,66 681.9675,58.2475 707.215,50.3738 C708.793,49.8816 710.3595,49.3891 711.9101,48.8979 C712.2977,48.7751 712.6844,48.6524 713.07,48.5298 C713.2628,48.4685 707.7383,50.2281 707.9305,50.1669 " fill="none" id="Proxy-to-V1" style="stroke:#181818;stroke-width:1.0;"/><polygon fill="#181818" points="713.6475,48.346,703.8581,47.266,708.8834,49.8634,706.286,54.8887,713.6475,48.346" style="stroke:#181818;stroke-width:1.0;"/><text fill="#000000" font-family="sans-serif" font-size="13" lengthAdjust="spacing" textLength="124.0142" x="434.42" y="62.0669">before deployment</text></g><!--link Proxy to V2--><g id="link_Proxy_V2"><path d="M165.91,128.78 C208.255,135.745 289.68,149.1425 360.9888,160.8763 C378.8159,163.8097 390.0905,165.6649 405.8844,168.2639 " fill="none" id="Proxy-to-V2" style="stroke:#181818;stroke-width:1.0;"/><polygon fill="#181818" points="411.8048,169.2381,403.5737,163.8299,406.8712,168.4263,402.2748,171.7237,411.8048,169.2381" style="stroke:#181818;stroke-width:1.0;"/><text fill="#000000" font-family="sans-serif" font-size="13" lengthAdjust="spacing" textLength="129.3716" x="227.54" y="135.0669">phased deployment</text></g><!--SRC=[ZPEnRi8m48PtFyK9Pghwl7LWI8Si7Rgq2yfWuYD411ivfYsgUFVQ3e64G8g7HBh_atrVugitfTv9AxUmbFcci6QlLMugOy5PgMiVaNQCLRHou0pOibWxKAMbt9L6CoPpvzcFccpDPE5PUBVcvy1O8AGkAeB95tzwde2iuPF3BmE_ScaL91ochyRgLMM-oIRLdZePZcHYaCLmaV0CPejrgHJfR3Rt1SnE2Lud8cF7VfFODecd9ZiXd9Aa5JWta_AGSF-QleLlareYtKUyIq3kA7Mr8dR7BdhuSwv4UElOv0DH7an3TcHtfV2s58v9fTWWEE8TXN1K20T2VikicryBuGD2uhQG-5z8Z0cbea543xaqAmOoeYSZ1Z9-hvvCl64pl-RnlxGrlDH4kBPnt21Kcc6BpyW4YCCBB6bbB86YNMKEsp32PoPiuudTMjQaEiGV]--></g></svg>