<?xml version="1.0" encoding="us-ascii" standalone="no"?><svg xmlns="http://www.w3.org/2000/svg" xmlns:xlink="http://www.w3.org/1999/xlink" contentStyleType="text/css" height="459px" preserveAspectRatio="none" style="width:771px;height:459px;background:#FFFFFF;" version="1.1" viewBox="0 0 771 459" width="771px" zoomAndPan="magnify"><defs/><g><rect fill="#FFFFFF" height="247.4844" style="stroke:#181818;stroke-width:1.0;" width="10" x="202.5" y="112.7988"/><rect fill="#FFFFFF" height="146.5527" style="stroke:#181818;stroke-width:1.0;" width="10" x="433.5" y="142.1094"/><rect fill="#FFFFFF" height="87.9316" style="stroke:#181818;stroke-width:1.0;" width="10" x="715.5" y="171.4199"/><line style="stroke:#181818;stroke-width:0.5;stroke-dasharray:5.0,5.0;" x1="30" x2="30" y1="81.4883" y2="378.2832"/><line style="stroke:#181818;stroke-width:0.5;stroke-dasharray:5.0,5.0;" x1="207" x2="207" y1="81.4883" y2="378.2832"/><line style="stroke:#181818;stroke-width:0.5;stroke-dasharray:5.0,5.0;" x1="438" x2="438" y1="81.4883" y2="378.2832"/><line style="stroke:#181818;stroke-width:0.5;stroke-dasharray:5.0,5.0;" x1="720.5" x2="720.5" y1="81.4883" y2="378.2832"/><text fill="#000000" font-family="sans-serif" font-size="14" lengthAdjust="spacing" textLength="45" x="5" y="78.5352">Renter</text><ellipse cx="30.5" cy="13.5" fill="#E2E2F0" rx="8" ry="8" style="stroke:#181818;stroke-width:0.5;"/><path d="M30.5,21.5 L30.5,48.5 M17.5,29.5 L43.5,29.5 M30.5,48.5 L17.5,63.5 M30.5,48.5 L43.5,63.5 " fill="none" style="stroke:#181818;stroke-width:0.5;"/><text fill="#000000" font-family="sans-serif" font-size="14" lengthAdjust="spacing" textLength="45" x="5" y="390.8184">Renter</text><ellipse cx="30.5" cy="402.2715" fill="#E2E2F0" rx="8" ry="8" style="stroke:#181818;stroke-width:0.5;"/><path d="M30.5,410.2715 L30.5,437.2715 M17.5,418.2715 L43.5,418.2715 M30.5,437.2715 L17.5,452.2715 M30.5,437.2715 L43.5,452.2715 " fill="none" style="stroke:#181818;stroke-width:0.5;"/><rect fill="#E2E2F0" height="30.4883" rx="2.5" ry="2.5" style="stroke:#181818;stroke-width:0.5;" width="165" x="125" y="50"/><text fill="#000000" font-family="sans-serif" font-size="14" lengthAdjust="spacing" textLength="151" x="132" y="70.5352">Scooter Rental System</text><rect fill="#E2E2F0" height="30.4883" rx="2.5" ry="2.5" style="stroke:#181818;stroke-width:0.5;" width="165" x="125" y="377.2832"/><text fill="#000000" font-family="sans-serif" font-size="14" lengthAdjust="spacing" textLength="151" x="132" y="397.8184">Scooter Rental System</text><rect fill="#E2E2F0" height="30.4883" rx="2.5" ry="2.5" style="stroke:#181818;stroke-width:0.5;" width="133" x="372" y="50"/><text fill="#000000" font-family="sans-serif" font-size="14" lengthAdjust="spacing" textLength="119" x="379" y="70.5352">Payment Gateway</text><rect fill="#E2E2F0" height="30.4883" rx="2.5" ry="2.5" style="stroke:#181818;stroke-width:0.5;" width="133" x="372" y="377.2832"/><text fill="#000000" font-family="sans-serif" font-size="14" lengthAdjust="spacing" textLength="119" x="379" y="397.8184">Payment Gateway</text><rect fill="#E2E2F0" height="30.4883" rx="2.5" ry="2.5" style="stroke:#181818;stroke-width:0.5;" width="90" x="675.5" y="50"/><text fill="#000000" font-family="sans-serif" font-size="14" lengthAdjust="spacing" textLength="76" x="682.5" y="70.5352">iDEAL Bank</text><rect fill="#E2E2F0" height="30.4883" rx="2.5" ry="2.5" style="stroke:#181818;stroke-width:0.5;" width="90" x="675.5" y="377.2832"/><text fill="#000000" font-family="sans-serif" font-size="14" lengthAdjust="spacing" textLength="76" x="682.5" y="397.8184">iDEAL Bank</text><rect fill="#FFFFFF" height="247.4844" style="stroke:#181818;stroke-width:1.0;" width="10" x="202.5" y="112.7988"/><rect fill="#FFFFFF" height="146.5527" style="stroke:#181818;stroke-width:1.0;" width="10" x="433.5" y="142.1094"/><rect fill="#FFFFFF" height="87.9316" style="stroke:#181818;stroke-width:1.0;" width="10" x="715.5" y="171.4199"/><polygon fill="#181818" points="190.5,108.7988,200.5,112.7988,190.5,116.7988,194.5,112.7988" style="stroke:#181818;stroke-width:1.0;"/><line style="stroke:#181818;stroke-width:1.0;" x1="30.5" x2="196.5" y1="112.7988" y2="112.7988"/><text fill="#000000" font-family="sans-serif" font-size="13" lengthAdjust="spacing" textLength="153" x="37.5" y="108.0566">Initiate Deposit(amount)</text><polygon fill="#181818" points="421.5,138.1094,431.5,142.1094,421.5,146.1094,425.5,142.1094" style="stroke:#181818;stroke-width:1.0;"/><line style="stroke:#181818;stroke-width:1.0;" x1="212.5" x2="427.5" y1="142.1094" y2="142.1094"/><text fill="#000000" font-family="sans-serif" font-size="13" lengthAdjust="spacing" textLength="109" x="219.5" y="137.3672">Redirect to iDEAL</text><polygon fill="#181818" points="703.5,167.4199,713.5,171.4199,703.5,175.4199,707.5,171.4199" style="stroke:#181818;stroke-width:1.0;"/><line style="stroke:#181818;stroke-width:1.0;" x1="443.5" x2="709.5" y1="171.4199" y2="171.4199"/><text fill="#000000" font-family="sans-serif" font-size="13" lengthAdjust="spacing" textLength="253" x="450.5" y="166.6777">Request Payment Authorization(amount)</text><polygon fill="#181818" points="41.5,196.7305,31.5,200.7305,41.5,204.7305,37.5,200.7305" style="stroke:#181818;stroke-width:1.0;"/><line style="stroke:#181818;stroke-width:1.0;" x1="35.5" x2="714.5" y1="200.7305" y2="200.7305"/><text fill="#000000" font-family="sans-serif" font-size="13" lengthAdjust="spacing" textLength="137" x="47.5" y="195.9883">Display Payment Page</text><polygon fill="#181818" points="703.5,226.041,713.5,230.041,703.5,234.041,707.5,230.041" style="stroke:#181818;stroke-width:1.0;"/><line style="stroke:#181818;stroke-width:1.0;" x1="30.5" x2="709.5" y1="230.041" y2="230.041"/><text fill="#000000" font-family="sans-serif" font-size="13" lengthAdjust="spacing" textLength="118" x="37.5" y="225.2988">Authorize Payment</text><polygon fill="#181818" points="454.5,255.3516,444.5,259.3516,454.5,263.3516,450.5,259.3516" style="stroke:#181818;stroke-width:1.0;"/><line style="stroke:#181818;stroke-width:1.0;" x1="448.5" x2="719.5" y1="259.3516" y2="259.3516"/><text fill="#000000" font-family="sans-serif" font-size="13" lengthAdjust="spacing" textLength="126" x="460.5" y="254.6094">Payment Authorized</text><polygon fill="#181818" points="223.5,284.6621,213.5,288.6621,223.5,292.6621,219.5,288.6621" style="stroke:#181818;stroke-width:1.0;"/><line style="stroke:#181818;stroke-width:1.0;" x1="217.5" x2="437.5" y1="288.6621" y2="288.6621"/><text fill="#000000" font-family="sans-serif" font-size="13" lengthAdjust="spacing" textLength="123" x="229.5" y="283.9199">Payment Confirmed</text><line style="stroke:#181818;stroke-width:1.0;" x1="212.5" x2="254.5" y1="317.9727" y2="317.9727"/><line style="stroke:#181818;stroke-width:1.0;" x1="254.5" x2="254.5" y1="317.9727" y2="330.9727"/><line style="stroke:#181818;stroke-width:1.0;" x1="213.5" x2="254.5" y1="330.9727" y2="330.9727"/><polygon fill="#181818" points="223.5,326.9727,213.5,330.9727,223.5,334.9727,219.5,330.9727" style="stroke:#181818;stroke-width:1.0;"/><text fill="#000000" font-family="sans-serif" font-size="13" lengthAdjust="spacing" textLength="207" x="219.5" y="313.2305">Update Account Balance(amount)</text><polygon fill="#181818" points="41.5,356.2832,31.5,360.2832,41.5,364.2832,37.5,360.2832" style="stroke:#181818;stroke-width:1.0;"/><line style="stroke:#181818;stroke-width:1.0;" x1="35.5" x2="206.5" y1="360.2832" y2="360.2832"/><text fill="#000000" font-family="sans-serif" font-size="13" lengthAdjust="spacing" textLength="104" x="47.5" y="355.541">Confirm Deposit</text><!--SRC=[RL7BJiGm3BplLrXxWWC_q0DIeGWXSLYnuWEir815cuJ41PMl9qcJRX_S77l6C-C00A0Iu-25j90xX3TOTCAABMg1uraP4mPfZXsSHo_K7m5zBlUC4uvz0CCZ2ltWcB2vjmTpyr0_mntgpuIBnI6X9ZzmSvjrAdZIB1nsGaFMU9OhxCsWvJh1GmZ-ZiE5gwcCAx9y5RQsx4W9Y84alIOlRPOOWHvTHUxNG5xcGJt8Xt7yYy96_sycnOcTMCHDKweA6lQsmt7UTS9tsiIUH8l8sbjPD-VQUg8suLhQMrdaAfSjhNkZtzZrU_9I-tBLGd-rRGJLIiKJ1AKEjQBLHIwaSe6iLJvpgvY_yGy0]--></g></svg>